<?xml version="1.0" encoding="UTF-8"?><svg id="Layer_2" xmlns="http://www.w3.org/2000/svg" viewBox="0 0 166.27 22.68"><defs><style>.cls-1{fill:#231f20;}.cls-1,.cls-2{stroke-width:0px;}.cls-2{fill:#bcbec0;}</style></defs><g id="Layer_1-2"><path class="cls-1" d="M2.58,20.11h-.06v2.11H0V0h2.52v8.45h.06c1.21-1.65,2.83-2.67,5.16-2.67,4.07,0,6.84,3.11,6.84,8.45s-2.58,8.45-6.93,8.45c-2.18,0-3.76-.78-5.07-2.58ZM12,14.26c0-3.6-1.46-6.34-4.51-6.34-3.51,0-5.13,2.86-5.13,6.34s1.68,6.31,5.1,6.31c3.08,0,4.54-2.67,4.54-6.31Z"/><path class="cls-1" d="M17.09,0h2.52v3.11h-2.52V0ZM17.09,6.15h2.52v16.07h-2.52V6.15Z"/><path class="cls-1" d="M22.12,14.2c0-4.66,2.98-8.45,7.77-8.45s7.74,3.79,7.74,8.45-2.92,8.45-7.74,8.45-7.77-3.79-7.77-8.45ZM35.05,14.2c0-3.54-1.74-6.37-5.16-6.37s-5.19,2.83-5.19,6.37,1.77,6.34,5.19,6.34,5.16-2.8,5.16-6.34Z"/><path class="cls-1" d="M39.24,14.2c0-4.66,2.98-8.45,7.77-8.45,3.79,0,6.31,2.18,6.87,5.59h-2.55c-.37-2.18-1.9-3.51-4.32-3.51-3.42,0-5.19,2.83-5.19,6.37s1.77,6.34,5.19,6.34c2.61,0,4.16-1.49,4.38-3.98h2.49c-.34,3.85-2.86,6.09-6.87,6.09-4.79,0-7.77-3.79-7.77-8.45Z"/><path class="cls-1" d="M66.5,22.22v-2.21h-.06c-1.15,1.55-2.52,2.58-4.85,2.58-3.29,0-5.41-1.99-5.41-5.31V6.15h2.52v11.06c0,2.08,1.34,3.29,3.6,3.29,2.55,0,4.2-1.93,4.2-4.47V6.15h2.52v16.07h-2.52Z"/><path class="cls-1" d="M75.01,20.11h-.06v2.11h-2.52V0h2.52v8.45h.06c1.21-1.65,2.83-2.67,5.16-2.67,4.07,0,6.84,3.11,6.84,8.45s-2.58,8.45-6.93,8.45c-2.18,0-3.76-.78-5.07-2.58ZM84.42,14.26c0-3.6-1.46-6.34-4.51-6.34-3.51,0-5.13,2.86-5.13,6.34s1.68,6.31,5.1,6.31c3.08,0,4.54-2.67,4.54-6.31Z"/><path class="cls-1" d="M88.62,14.2c0-4.66,3.05-8.45,7.61-8.45,4.82,0,7.4,3.73,7.4,9.04h-12.43c.19,3.26,1.96,5.75,5.19,5.75,2.33,0,3.88-1.12,4.44-3.29h2.46c-.75,3.45-3.26,5.41-6.9,5.41-4.91,0-7.77-3.79-7.77-8.45ZM91.26,12.9h9.66c-.16-3.2-1.8-5.16-4.69-5.16s-4.6,2.24-4.97,5.16Z"/><path class="cls-1" d="M105.06,17h2.58c.34,2.8,2.21,3.57,4.6,3.57,2.64,0,3.73-1.15,3.73-2.64,0-1.8-1.24-2.27-4.2-2.89-3.17-.65-6-1.31-6-4.82,0-2.67,2.05-4.41,5.78-4.41,3.98,0,5.94,1.9,6.31,5.03h-2.58c-.25-2.11-1.4-3.05-3.79-3.05s-3.23,1.03-3.23,2.3c0,1.74,1.55,2.08,4.32,2.64,3.23.65,5.94,1.37,5.94,5.07,0,3.23-2.64,4.88-6.34,4.88-4.41,0-6.87-2.08-7.12-5.69Z"/><path class="cls-2" d="M120.59,19.14h3.01v3.08h-3.01v-3.08Z"/><path class="cls-2" d="M129.2,8.27h.06c1.15-1.52,2.77-2.49,5.1-2.49,3.36,0,5.41,1.83,5.41,5.16v11.28h-2.52v-11.06c0-2.08-1.37-3.26-3.64-3.26-2.55,0-4.41,1.8-4.41,4.44v9.88h-2.52V6.15h2.52v2.11Z"/><path class="cls-2" d="M142.19,14.2c0-4.66,3.05-8.45,7.61-8.45,4.82,0,7.4,3.73,7.4,9.04h-12.43c.19,3.26,1.96,5.75,5.19,5.75,2.33,0,3.88-1.12,4.44-3.29h2.46c-.75,3.45-3.26,5.41-6.9,5.41-4.91,0-7.77-3.79-7.77-8.45ZM144.83,12.9h9.66c-.16-3.2-1.8-5.16-4.69-5.16s-4.6,2.24-4.97,5.16Z"/><path class="cls-2" d="M158.31,6.15h2.33V1.09h2.52v5.07h3.11v2.05h-3.11v10.44c0,1.12.59,1.49,1.62,1.49.5,0,1.06-.12,1.34-.22h.09v2.18c-.59.12-1.27.22-2.02.22-2.05,0-3.54-.84-3.54-3.11v-11h-2.33v-2.05Z"/></g></svg>