<?xml version="1.0" encoding="UTF-8"?><svg id="Layer_3" xmlns="http://www.w3.org/2000/svg" viewBox="0 0 186.04 39.44"><g><path d="M15.03,4.47h3.09V31.79h-3.09V4.47Z"/><path d="M21.48,4.47h3.09v3.82h-3.09v-3.82Zm0,7.56h3.09V31.79h-3.09V12.03Z"/><path d="M25.8,12.03h3.32l4.09,12.53c.57,1.76,1.3,4.17,1.3,4.17h.08s.73-2.45,1.3-4.17l4.17-12.53h3.21l-7.11,19.75h-3.44l-6.92-19.75Z"/><path d="M44.49,4.47h3.09v3.82h-3.09v-3.82Zm0,7.56h3.09V31.79h-3.09V12.03Z"/><path d="M53.93,14.63h.08c1.41-1.87,3.4-3.06,6.27-3.06,4.13,0,6.65,2.25,6.65,6.34v13.87h-3.09v-13.6c0-2.56-1.68-4.01-4.47-4.01-3.13,0-5.43,2.22-5.43,5.46v12.15h-3.09V12.03h3.09v2.6Z"/><path d="M69.56,32.9h2.87c.31,2.18,2.37,3.02,5.42,3.02,3.63,0,5.66-1.64,5.66-5.08v-2.79h-.08c-1.45,1.87-3.02,3.06-5.85,3.06-5.12,0-8.63-4.09-8.63-9.78,0-6.15,3.86-9.74,8.44-9.74,2.87,0,4.7,1.11,6.04,2.98h.08v-2.52h3.09V30.72c0,5.2-3.44,7.64-8.67,7.64s-8.02-2.06-8.37-5.46Zm14.18-11.73c0-4.32-1.83-6.99-6.04-6.99-3.71,0-5.58,2.9-5.58,7.18s1.95,7.14,5.62,7.14c4.55,0,6-3.17,6-7.34Z"/></g><g><path d="M8.96,31.86v-.63h-1.36v-.68h1.36v-.83h.55v.83h2.8c.3,0,.4-.16,.4-.43,0-.13-.03-.28-.06-.36v-.03h.58c.03,.16,.06,.34,.06,.54,0,.55-.23,.95-.83,.95h-2.96v.63h-.55Z"/><path d="M9.53,28.55v-.02c-.41-.31-.67-.74-.67-1.37,0-.9,.49-1.45,1.38-1.45h3.03v.68h-2.97c-.56,0-.88,.37-.88,.98,0,.68,.48,1.19,1.19,1.19h2.65v.68H7.31v-.68h2.22Z"/><path d="M11.12,25.27c-1.25,0-2.27-.82-2.27-2.04,0-1.29,1-1.99,2.43-1.99v3.34c.88-.05,1.54-.53,1.54-1.39,0-.63-.3-1.04-.88-1.19v-.66c.93,.2,1.45,.88,1.45,1.85,0,1.32-1.02,2.09-2.27,2.09Zm-.35-.71v-2.6c-.86,.04-1.39,.48-1.39,1.26s.6,1.24,1.39,1.33Z"/></g><g><path d="M113.06,31.99v-.63h-1.36v-.68h1.36v-.83h.55v.83h2.8c.3,0,.4-.16,.4-.43,0-.13-.03-.28-.06-.36v-.03h.58c.03,.16,.06,.34,.06,.54,0,.55-.23,.95-.83,.95h-2.96v.63h-.55Z"/><path d="M113.63,28.69v-.02c-.41-.31-.67-.74-.67-1.37,0-.9,.49-1.45,1.38-1.45h3.03v.68h-2.97c-.56,0-.88,.37-.88,.98,0,.68,.48,1.19,1.19,1.19h2.65v.68h-5.97v-.68h2.22Z"/><path d="M115.22,25.41c-1.25,0-2.27-.82-2.27-2.04,0-1.29,1-1.99,2.43-1.99v3.34c.88-.05,1.54-.53,1.54-1.39,0-.63-.3-1.04-.88-1.19v-.66c.93,.2,1.45,.88,1.45,1.85,0,1.32-1.02,2.09-2.27,2.09Zm-.35-.71v-2.6c-.86,.04-1.39,.48-1.39,1.26s.6,1.24,1.39,1.33Z"/></g><g><path d="M122.22,29.19h-.08v2.6h-3.09V4.47h3.09V14.86h.08c1.49-2.03,3.48-3.29,6.34-3.29,5,0,8.41,3.82,8.41,10.39s-3.17,10.39-8.52,10.39c-2.67,0-4.62-.96-6.23-3.17Zm11.58-7.18c0-4.43-1.8-7.79-5.54-7.79-4.32,0-6.3,3.52-6.3,7.79s2.06,7.76,6.27,7.76c3.78,0,5.58-3.29,5.58-7.76Z"/><path d="M151.68,31.79v-2.71h-.08c-1.41,1.91-3.09,3.17-5.96,3.17-4.05,0-6.65-2.45-6.65-6.53V12.03h3.1v13.6c0,2.56,1.64,4.05,4.43,4.05,3.13,0,5.16-2.37,5.16-5.5V12.03h3.09V31.79h-3.09Z"/><path d="M158.03,4.47h3.09v3.82h-3.09v-3.82Zm0,7.56h3.09V31.79h-3.09V12.03Z"/><path d="M164.49,4.47h3.09V31.79h-3.09V4.47Z"/><path d="M169.69,12.03h2.87V5.81h3.09v6.23h3.82v2.52h-3.82v12.84c0,1.38,.73,1.83,1.99,1.83,.61,0,1.3-.15,1.64-.27h.11v2.67c-.73,.15-1.57,.27-2.48,.27-2.52,0-4.36-1.03-4.36-3.82V14.56h-2.87v-2.52Z"/></g><path d="M92.78,27.03c0-3.06,1.88-4.62,4.48-6.21l-.58-.75c-1.18-1.53-1.59-2.74-1.59-4.25,0-2.34,1.94-4.13,4.45-4.13,2.28,0,4.48,1.42,4.48,4.3,0,2.51-1.82,3.9-3.78,5.17l4.1,5.23c.43-1.13,.69-2.4,.69-3.81h2.02c0,1.96-.46,3.93-1.33,5.57l3.12,3.99h-2.8l-1.62-2.08c-1.39,1.5-3.29,2.48-5.72,2.48-3,0-5.92-2.14-5.92-5.52Zm10.37,1.39l-4.74-6.09c-1.88,1.24-3.29,2.43-3.29,4.71,0,2.05,1.68,3.47,3.73,3.47,1.73,0,3.21-.78,4.3-2.08Zm-4.59-9.42l.55,.72c1.79-1.16,2.66-2.2,2.66-3.78,0-1.42-.87-2.31-2.22-2.31s-2.25,.9-2.25,2.22c0,1.16,.38,1.99,1.27,3.15Z"/></svg>