<?xml version="1.0" encoding="utf-8"?>
<!-- Generator: Adobe Illustrator 27.8.1, SVG Export Plug-In . SVG Version: 6.00 Build 0)  -->
<svg version="1.1" id="Layer_3" xmlns="http://www.w3.org/2000/svg" xmlns:xlink="http://www.w3.org/1999/xlink" x="0px" y="0px"
	 viewBox="0 0 186 39.4" style="enable-background:new 0 0 186 39.4;" xml:space="preserve">
<style type="text/css">
	.st0{fill:#FFFFFF;}
</style>
<g>
	<path class="st0" d="M15,4.5h3.1v27.3H15C15,31.8,15,4.5,15,4.5z"/>
	<path class="st0" d="M21.5,4.5h3.1v3.8h-3.1C21.5,8.3,21.5,4.5,21.5,4.5z M21.5,12h3.1v19.8h-3.1V12z"/>
	<path class="st0" d="M25.8,12h3.3l4.1,12.5c0.6,1.8,1.3,4.2,1.3,4.2h0.1c0,0,0.7-2.5,1.3-4.2L40.1,12h3.2l-7.1,19.8h-3.4
		C32.7,31.8,25.8,12,25.8,12z"/>
	<path class="st0" d="M44.5,4.5h3.1v3.8h-3.1C44.5,8.3,44.5,4.5,44.5,4.5z M44.5,12h3.1v19.8h-3.1V12z"/>
	<path class="st0" d="M53.9,14.6L53.9,14.6c1.5-1.9,3.5-3.1,6.4-3.1c4.1,0,6.6,2.2,6.6,6.3v13.9h-3.1V18.2c0-2.6-1.7-4-4.5-4
		c-3.1,0-5.4,2.2-5.4,5.5v12.1h-3.1V12h3.1L53.9,14.6L53.9,14.6z"/>
	<path class="st0" d="M69.6,32.9h2.9c0.3,2.2,2.4,3,5.4,3c3.6,0,5.7-1.6,5.7-5.1v-2.8h-0.1c-1.4,1.9-3,3.1-5.8,3.1
		c-5.1,0-8.6-4.1-8.6-9.8c0-6.1,3.9-9.7,8.4-9.7c2.9,0,4.7,1.1,6,3h0.1v-2.5h3.1v18.7c0,5.2-3.4,7.6-8.7,7.6S69.9,36.3,69.6,32.9z
		 M83.7,21.2c0-4.3-1.8-7-6-7c-3.7,0-5.6,2.9-5.6,7.2s1.9,7.1,5.6,7.1C82.3,28.5,83.7,25.3,83.7,21.2L83.7,21.2z"/>
</g>
<g>
	<path class="st0" d="M9,31.9v-0.6H7.6v-0.7H9v-0.8h0.6v0.8h2.8c0.3,0,0.4-0.2,0.4-0.4c0-0.1,0-0.3-0.1-0.4v0h0.6
		c0,0.2,0.1,0.3,0.1,0.5c0,0.5-0.2,1-0.8,1h-3v0.6L9,31.9L9,31.9z"/>
	<path class="st0" d="M9.5,28.5L9.5,28.5c-0.4-0.3-0.7-0.8-0.7-1.4c0-0.9,0.5-1.5,1.4-1.5h3v0.7h-3c-0.6,0-0.9,0.4-0.9,1
		c0,0.7,0.5,1.2,1.2,1.2h2.6v0.7H7.3v-0.7L9.5,28.5L9.5,28.5z"/>
	<path class="st0" d="M11.1,25.3c-1.2,0-2.3-0.8-2.3-2c0-1.3,1-2,2.4-2v3.3c0.9,0,1.5-0.5,1.5-1.4c0-0.6-0.3-1-0.9-1.2v-0.7
		c0.9,0.2,1.4,0.9,1.4,1.9C13.4,24.5,12.4,25.3,11.1,25.3L11.1,25.3z M10.8,24.6V22c-0.9,0-1.4,0.5-1.4,1.3S10,24.5,10.8,24.6
		L10.8,24.6z"/>
</g>
<g>
	<path class="st0" d="M113.1,32v-0.6h-1.4v-0.7h1.4v-0.8h0.6v0.8h2.8c0.3,0,0.4-0.2,0.4-0.4c0-0.1,0-0.3-0.1-0.4v0h0.6
		c0,0.2,0.1,0.3,0.1,0.5c0,0.5-0.2,1-0.8,1h-3V32L113.1,32L113.1,32z"/>
	<path class="st0" d="M113.6,28.7L113.6,28.7c-0.4-0.3-0.7-0.8-0.7-1.4c0-0.9,0.5-1.5,1.4-1.5h3v0.7h-3c-0.6,0-0.9,0.4-0.9,1
		c0,0.7,0.5,1.2,1.2,1.2h2.7v0.7h-6v-0.7L113.6,28.7L113.6,28.7z"/>
	<path class="st0" d="M115.2,25.4c-1.2,0-2.3-0.8-2.3-2c0-1.3,1-2,2.4-2v3.3c0.9,0,1.5-0.5,1.5-1.4c0-0.6-0.3-1-0.9-1.2v-0.7
		c0.9,0.2,1.4,0.9,1.4,1.9C117.5,24.6,116.5,25.4,115.2,25.4L115.2,25.4z M114.9,24.7v-2.6c-0.9,0-1.4,0.5-1.4,1.3
		S114.1,24.6,114.9,24.7L114.9,24.7z"/>
</g>
<g>
	<path class="st0" d="M122.2,29.2L122.2,29.2l-0.1,2.6h-3.1V4.5h3.1v10.4h0.1c1.5-2,3.5-3.3,6.3-3.3c5,0,8.4,3.8,8.4,10.4
		s-3.2,10.4-8.5,10.4C125.8,32.3,123.8,31.4,122.2,29.2L122.2,29.2z M133.8,22c0-4.4-1.8-7.8-5.5-7.8c-4.3,0-6.3,3.5-6.3,7.8
		s2.1,7.8,6.3,7.8C132,29.8,133.8,26.5,133.8,22L133.8,22z"/>
	<path class="st0" d="M151.7,31.8v-2.7h-0.1c-1.4,1.9-3.1,3.2-6,3.2c-4.1,0-6.6-2.5-6.6-6.5V12h3.1v13.6c0,2.6,1.6,4,4.4,4
		c3.1,0,5.2-2.4,5.2-5.5V12h3.1v19.8H151.7z"/>
	<path class="st0" d="M158,4.5h3.1v3.8H158C158,8.3,158,4.5,158,4.5z M158,12h3.1v19.8H158V12z"/>
	<path class="st0" d="M164.5,4.5h3.1v27.3h-3.1V4.5z"/>
	<path class="st0" d="M169.7,12h2.9V5.8h3.1V12h3.8v2.5h-3.8v12.8c0,1.4,0.7,1.8,2,1.8c0.6,0,1.3-0.1,1.6-0.3h0.1v2.7
		c-0.7,0.1-1.6,0.3-2.5,0.3c-2.5,0-4.4-1-4.4-3.8V14.6h-2.9L169.7,12L169.7,12z"/>
</g>
<path class="st0" d="M92.8,27c0-3.1,1.9-4.6,4.5-6.2l-0.6-0.8c-1.2-1.5-1.6-2.7-1.6-4.2c0-2.3,1.9-4.1,4.4-4.1
	c2.3,0,4.5,1.4,4.5,4.3c0,2.5-1.8,3.9-3.8,5.2l4.1,5.2c0.4-1.1,0.7-2.4,0.7-3.8h2c0,2-0.5,3.9-1.3,5.6l3.1,4H106l-1.6-2.1
	c-1.4,1.5-3.3,2.5-5.7,2.5C95.7,32.5,92.8,30.4,92.8,27L92.8,27z M103.2,28.4l-4.7-6.1c-1.9,1.2-3.3,2.4-3.3,4.7
	c0,2,1.7,3.5,3.7,3.5C100.6,30.5,102.1,29.7,103.2,28.4L103.2,28.4z M98.6,19l0.6,0.7c1.8-1.2,2.7-2.2,2.7-3.8
	c0-1.4-0.9-2.3-2.2-2.3s-2.2,0.9-2.2,2.2C97.3,17,97.7,17.8,98.6,19L98.6,19z"/>
</svg>
