<?xml version="1.0" encoding="UTF-8"?><svg id="Layer_2" xmlns="http://www.w3.org/2000/svg" viewBox="0 0 24 24"><defs><style>.cls-1{stroke-width:0px;}</style></defs><g id="Layer_1-2"><path class="cls-1" d="M19,0H5C2.24,0,0,2.24,0,5v14c0,2.76,2.24,5,5,5h14c2.76,0,5-2.24,5-5V5c0-2.76-2.24-5-5-5ZM6.33,6.94h11.36c.41,0,.77.15,1.06.4-.95.71-6.75,5.07-6.75,5.07l-6.74-5.05c.29-.25.66-.41,1.07-.41ZM19.32,15.56c-.04.8-.65,1.43-1.44,1.52H6.14c-.81-.09-1.45-.78-1.45-1.61v-6.89c0-.06.01-.12.02-.18l7.28,5.46,7.31-5.48s0,.07.01.11v7.07Z"/></g></svg>