<?xml version="1.0" encoding="UTF-8"?><svg id="Layer_2" xmlns="http://www.w3.org/2000/svg" viewBox="0 0 91.14 34.41"><defs><style>.cls-1{stroke-width:0px;}</style></defs><g id="Layer_3"><path class="cls-1" d="m24.73,27.52v-.63h-1.36v-.68h1.36v-.83h.55v.83h2.8c.3,0,.4-.16.4-.43,0-.13-.03-.28-.06-.36v-.03h.58c.03.16.06.34.06.54,0,.55-.23.95-.83.95h-2.96v.63h-.55,0Z"/><path class="cls-1" d="m25.3,24.22v-.02c-.41-.31-.67-.74-.67-1.37,0-.9.49-1.45,1.38-1.45h3.03v.68h-2.97c-.56,0-.88.37-.88.98,0,.68.48,1.19,1.19,1.19h2.65v.68h-5.97v-.68h2.24Z"/><path class="cls-1" d="m26.89,20.94c-1.25,0-2.27-.82-2.27-2.04,0-1.29,1-1.99,2.43-1.99v3.34c.88-.05,1.54-.53,1.54-1.39,0-.63-.3-1.04-.88-1.19v-.66c.93.2,1.45.88,1.45,1.85,0,1.32-1.02,2.09-2.27,2.09h0Zm-.35-.71v-2.6c-.86.04-1.39.48-1.39,1.26s.6,1.24,1.39,1.33h0Z"/><path class="cls-1" d="m33.89,24.72h-.08v2.6h-3.09V0h3.09v10.39h.08c1.49-2.03,3.48-3.29,6.34-3.29,5,0,8.41,3.82,8.41,10.39s-3.17,10.39-8.52,10.39c-2.67,0-4.62-.96-6.23-3.17h0Zm11.58-7.18c0-4.43-1.8-7.79-5.54-7.79-4.32,0-6.3,3.52-6.3,7.79s2.06,7.76,6.27,7.76c3.78,0,5.58-3.29,5.58-7.76,0,0-.01,0,0,0Z"/><path class="cls-1" d="m63.35,27.32v-2.71h-.08c-1.41,1.91-3.09,3.17-5.96,3.17-4.05,0-6.65-2.45-6.65-6.53V7.56h3.1v13.6c0,2.56,1.64,4.05,4.43,4.05,3.13,0,5.16-2.37,5.16-5.5V7.56h3.09v19.76h-3.09Z"/><path class="cls-1" d="m69.7,0h3.09v3.82h-3.09V0Zm0,7.56h3.09v19.76h-3.09V7.56Z"/><path class="cls-1" d="m76.16,0h3.09v27.32h-3.09V0Z"/><path class="cls-1" d="m81.36,7.56h2.87V1.34h3.09v6.23h3.82v2.52h-3.82v12.84c0,1.38.73,1.83,1.99,1.83.61,0,1.3-.15,1.64-.27h.11v2.67c-.73.15-1.57.27-2.48.27-2.52,0-4.36-1.03-4.36-3.82v-13.52h-2.87v-2.52h0Z"/><path class="cls-1" d="m4.45,22.56c0-3.06,1.88-4.62,4.48-6.21l-.58-.75c-1.18-1.53-1.59-2.74-1.59-4.25,0-2.34,1.94-4.13,4.45-4.13,2.28,0,4.48,1.42,4.48,4.3,0,2.51-1.82,3.9-3.78,5.17l4.1,5.23c.43-1.13.69-2.4.69-3.81h2.02c0,1.96-.46,3.93-1.33,5.57l3.12,3.99h-2.8l-1.62-2.08c-1.39,1.5-3.29,2.48-5.72,2.48-3,0-5.92-2.14-5.92-5.52h0Zm10.37,1.39l-4.74-6.09c-1.88,1.24-3.29,2.43-3.29,4.71,0,2.05,1.68,3.47,3.73,3.47,1.73,0,3.21-.78,4.3-2.08h0Zm-4.59-9.42l.55.72c1.79-1.16,2.66-2.2,2.66-3.78,0-1.42-.87-2.31-2.22-2.31s-2.25.9-2.25,2.22c0,1.16.38,1.99,1.27,3.15,0,0-.01,0-.01,0Z"/><path class="cls-1" d="m1.87,33.1h0c-.17.22-.45.44-.93.44-.53,0-.94-.25-.94-.78,0-.66.52-.79,1.21-.9.39-.06.67-.1.67-.4s-.23-.49-.62-.49c-.45,0-.68.19-.69.61H.14c.02-.54.37-.94,1.11-.94.59,0,1.03.22,1.03.88v1.33c0,.23.05.35.3.3h.02v.32c-.05.02-.12.04-.24.04-.29,0-.44-.13-.48-.42Zm.01-.64v-.47c-.15.09-.4.16-.64.21-.44.08-.79.16-.79.57,0,.37.29.45.58.45.58,0,.85-.43.85-.75Z"/><path class="cls-1" d="m3.35,31.07h.01c.2-.26.48-.43.88-.43.58,0,.94.32.94.89v1.96h-.44v-1.92c0-.36-.24-.57-.63-.57-.44,0-.77.31-.77.77v1.71h-.44v-2.79h.44v.37Z"/><path class="cls-1" d="m6.62,29.63h.44v.54h-.44v-.54Zm0,1.07h.44v2.79h-.44v-2.79Z"/><path class="cls-1" d="m8.09,31.07h.01c.2-.26.48-.43.88-.43.58,0,.94.32.94.89v1.96h-.44v-1.92c0-.36-.24-.57-.63-.57-.44,0-.76.31-.76.77v1.71h-.44v-2.79h.44v.37Z"/><path class="cls-1" d="m10.16,30.7h.47l.58,1.77c.08.25.18.59.18.59h.01s.1-.34.18-.59l.59-1.77h.45l-1,2.79h-.49l-.97-2.79Z"/><path class="cls-1" d="m12.72,32.1c0-.81.53-1.46,1.32-1.46.83,0,1.28.65,1.28,1.57h-2.15c.03.57.34,1,.9,1,.4,0,.67-.19.77-.57h.43c-.13.6-.57.94-1.2.94-.85,0-1.35-.66-1.35-1.46Zm.46-.23h1.68c-.03-.55-.31-.89-.81-.89s-.8.39-.86.89Z"/><path class="cls-1" d="m16.19,31.07h.01c.2-.26.48-.43.88-.43.58,0,.94.32.94.89v1.96h-.44v-1.92c0-.36-.24-.57-.63-.57-.44,0-.76.31-.76.77v1.71h-.44v-2.79h.44v.37Z"/><path class="cls-1" d="m18.36,30.7h.4v-.88h.44v.88h.54v.36h-.54v1.81c0,.19.1.26.28.26.09,0,.18-.02.23-.04h.02v.38c-.1.02-.22.04-.35.04-.36,0-.61-.15-.61-.54v-1.91h-.4v-.36Z"/><path class="cls-1" d="m20.01,32.1c0-.81.52-1.46,1.35-1.46s1.34.66,1.34,1.46-.51,1.46-1.34,1.46-1.35-.66-1.35-1.46Zm2.24,0c0-.61-.3-1.1-.89-1.1s-.9.49-.9,1.1.31,1.1.9,1.1.89-.48.89-1.1Z"/><path class="cls-1" d="m23.58,31.16h.01c.17-.27.46-.5.83-.5.08,0,.12.01.18.03v.42h-.02c-.06-.02-.11-.03-.19-.03-.43,0-.81.32-.81.85v1.55h-.44v-2.79h.44v.46Z"/><path class="cls-1" d="m24.95,34.35v-.39h.02c.06.03.15.06.3.06.18,0,.31-.07.42-.34l.11-.28-1.09-2.7h.47l.66,1.73c.09.23.19.54.19.54h.01s.1-.31.18-.54l.64-1.73h.46l-1.19,3.01c-.23.58-.44.69-.78.69-.17,0-.27-.01-.39-.06Z"/><path class="cls-1" d="m28.33,32.1c0-.81.52-1.46,1.35-1.46s1.34.66,1.34,1.46-.51,1.46-1.34,1.46-1.35-.66-1.35-1.46Zm2.24,0c0-.61-.3-1.1-.89-1.1s-.9.49-.9,1.1.31,1.1.9,1.1.89-.48.89-1.1Z"/><path class="cls-1" d="m31.22,30.7h.38v-.45c0-.48.27-.65.74-.65.09,0,.16,0,.22.01v.37c-.08,0-.1,0-.14,0-.28,0-.38.07-.38.3v.42h.52v.36h-.52v2.43h-.44v-2.43h-.38v-.36Z"/><path class="cls-1" d="m34.29,33.12h-.01v.37h-.44v-3.85h.44v1.47h.01c.21-.29.49-.46.89-.46.71,0,1.18.54,1.18,1.46s-.45,1.47-1.2,1.47c-.38,0-.65-.13-.88-.45Zm1.63-1.01c0-.62-.25-1.1-.78-1.1-.61,0-.89.5-.89,1.1s.29,1.09.88,1.09c.53,0,.79-.46.79-1.09Z"/><path class="cls-1" d="m36.81,29.63h.44v.54h-.44v-.54Zm0,1.07h.44v2.79h-.44v-2.79Z"/><path class="cls-1" d="m37.68,32.1c0-.81.52-1.46,1.35-1.46s1.34.66,1.34,1.46-.51,1.46-1.34,1.46-1.35-.66-1.35-1.46Zm2.24,0c0-.61-.3-1.1-.89-1.1s-.9.49-.9,1.1.31,1.1.9,1.1.89-.48.89-1.1Z"/><path class="cls-1" d="m40.81,30.7h.44v.4h.01c.17-.27.47-.46.82-.46s.61.17.73.5h.01c.18-.32.51-.5.85-.5.5,0,.85.32.85.89v1.96h-.44v-1.93c0-.34-.23-.55-.51-.55-.36,0-.68.31-.68.75v1.73h-.44v-1.93c0-.34-.19-.55-.48-.55-.34,0-.72.31-.72.75v1.73h-.44v-2.79Z"/><path class="cls-1" d="m46.8,33.1h0c-.17.22-.45.44-.93.44-.53,0-.94-.25-.94-.78,0-.66.52-.79,1.21-.9.39-.06.67-.1.67-.4s-.23-.49-.62-.49c-.45,0-.68.19-.7.61h-.42c.02-.54.37-.94,1.11-.94.59,0,1.03.22,1.03.88v1.33c0,.23.05.35.3.3h.02v.32c-.05.02-.12.04-.24.04-.29,0-.44-.13-.48-.42Zm.01-.64v-.47c-.15.09-.4.16-.64.21-.44.08-.79.16-.79.57,0,.37.29.45.58.45.58,0,.85-.43.85-.75Z"/><path class="cls-1" d="m47.66,32.58h.45c.06.49.38.62.8.62.46,0,.65-.2.65-.46,0-.31-.21-.39-.73-.5-.55-.11-1.04-.23-1.04-.83,0-.46.36-.76,1-.76.69,0,1.03.33,1.09.87h-.45c-.04-.37-.24-.53-.66-.53s-.56.18-.56.4c0,.3.27.36.75.46.56.11,1.03.24,1.03.88,0,.56-.46.85-1.1.85-.76,0-1.19-.36-1.23-.99Z"/><path class="cls-1" d="m50.24,32.58h.45c.06.49.38.62.8.62.46,0,.65-.2.65-.46,0-.31-.21-.39-.73-.5-.55-.11-1.04-.23-1.04-.83,0-.46.36-.76,1-.76.69,0,1.03.33,1.09.87h-.45c-.04-.37-.24-.53-.66-.53s-.56.18-.56.4c0,.3.27.36.75.46.56.11,1.03.24,1.03.88,0,.56-.46.85-1.1.85-.76,0-1.19-.36-1.23-.99Z"/><path class="cls-1" d="m55.56,33.1h0c-.17.22-.45.44-.93.44-.53,0-.94-.25-.94-.78,0-.66.52-.79,1.21-.9.39-.06.67-.1.67-.4s-.23-.49-.62-.49c-.45,0-.68.19-.7.61h-.42c.02-.54.37-.94,1.11-.94.59,0,1.03.22,1.03.88v1.33c0,.23.05.35.3.3h.02v.32c-.05.02-.12.04-.24.04-.29,0-.44-.13-.48-.42Zm.01-.64v-.47c-.15.09-.4.16-.64.21-.44.08-.79.16-.79.57,0,.37.29.45.58.45.58,0,.85-.43.85-.75Z"/><path class="cls-1" d="m57.04,31.07h.01c.2-.26.48-.43.88-.43.58,0,.94.32.94.89v1.96h-.44v-1.92c0-.36-.24-.57-.63-.57-.44,0-.76.31-.76.77v1.71h-.44v-2.79h.44v.37Z"/><path class="cls-1" d="m59.29,32.1c0-.93.53-1.46,1.22-1.46.39,0,.7.19.87.46h.01v-1.46h.44v3.85h-.44v-.34h-.01c-.21.27-.47.42-.86.42-.76,0-1.23-.57-1.23-1.47Zm2.13,0c0-.65-.31-1.1-.89-1.1-.53,0-.8.47-.8,1.1s.27,1.09.8,1.09c.62,0,.88-.46.88-1.09Z"/><path class="cls-1" d="m63.11,30.7h.4v-.88h.44v.88h.54v.36h-.54v1.81c0,.19.1.26.28.26.09,0,.18-.02.23-.04h.02v.38c-.1.02-.22.04-.35.04-.36,0-.61-.15-.61-.54v-1.91h-.4v-.36Z"/><path class="cls-1" d="m64.76,32.1c0-.81.53-1.46,1.32-1.46.83,0,1.28.65,1.28,1.57h-2.15c.03.57.34,1,.9,1,.4,0,.67-.19.77-.57h.43c-.13.6-.57.94-1.2.94-.85,0-1.35-.66-1.35-1.46Zm.46-.23h1.68c-.03-.55-.31-.89-.81-.89s-.8.39-.86.89Z"/><path class="cls-1" d="m67.63,32.1c0-.81.52-1.46,1.35-1.46.66,0,1.09.38,1.19.97h-.44c-.06-.38-.33-.61-.75-.61-.59,0-.9.49-.9,1.1s.31,1.1.9,1.1c.45,0,.72-.26.76-.69h.43c-.06.67-.5,1.06-1.19,1.06-.83,0-1.35-.66-1.35-1.46Z"/><path class="cls-1" d="m71.02,31.07h.01c.2-.26.48-.43.88-.43.58,0,.94.32.94.89v1.96h-.44v-1.92c0-.36-.24-.57-.63-.57-.44,0-.76.31-.76.77v1.71h-.44v-3.85h.44v1.43Z"/><path class="cls-1" d="m73.87,31.07h.01c.2-.26.48-.43.88-.43.58,0,.94.32.94.89v1.96h-.44v-1.92c0-.36-.24-.57-.63-.57-.44,0-.76.31-.76.77v1.71h-.44v-2.79h.44v.37Z"/><path class="cls-1" d="m76.13,32.1c0-.81.52-1.46,1.35-1.46s1.34.66,1.34,1.46-.51,1.46-1.34,1.46-1.35-.66-1.35-1.46Zm2.24,0c0-.61-.3-1.1-.89-1.1s-.9.49-.9,1.1.31,1.1.9,1.1.89-.48.89-1.1Z"/><path class="cls-1" d="m79.25,30.7h.44v.4h.01c.17-.27.47-.46.82-.46s.61.17.73.5h.01c.18-.32.51-.5.85-.5.5,0,.85.32.85.89v1.96h-.44v-1.93c0-.34-.23-.55-.51-.55-.36,0-.68.31-.68.75v1.73h-.44v-1.93c0-.34-.19-.55-.48-.55-.34,0-.72.31-.72.75v1.73h-.44v-2.79Z"/><path class="cls-1" d="m85.24,33.1h0c-.17.22-.45.44-.93.44-.53,0-.94-.25-.94-.78,0-.66.52-.79,1.21-.9.39-.06.67-.1.67-.4s-.23-.49-.62-.49c-.45,0-.68.19-.7.61h-.42c.02-.54.37-.94,1.11-.94.59,0,1.03.22,1.03.88v1.33c0,.23.05.35.3.3h.02v.32c-.05.02-.12.04-.24.04-.29,0-.44-.13-.48-.42Zm.01-.64v-.47c-.15.09-.4.16-.64.21-.44.08-.79.16-.79.57,0,.37.29.45.58.45.58,0,.85-.43.85-.75Z"/><path class="cls-1" d="m86.11,32.58h.45c.06.49.38.62.8.62.46,0,.65-.2.65-.46,0-.31-.21-.39-.73-.5-.55-.11-1.04-.23-1.04-.83,0-.46.36-.76,1-.76.69,0,1.03.33,1.09.87h-.45c-.04-.37-.24-.53-.66-.53s-.56.18-.56.4c0,.3.27.36.75.46.56.11,1.03.24,1.03.88,0,.56-.46.85-1.1.85-.76,0-1.19-.36-1.23-.99Z"/><path class="cls-1" d="m88.68,32.58h.45c.06.49.38.62.8.62.46,0,.65-.2.65-.46,0-.31-.21-.39-.73-.5-.55-.11-1.04-.23-1.04-.83,0-.46.36-.76,1-.76.69,0,1.03.33,1.09.87h-.45c-.04-.37-.24-.53-.66-.53s-.56.18-.56.4c0,.3.27.36.75.46.56.11,1.03.24,1.03.88,0,.56-.46.85-1.1.85-.76,0-1.19-.36-1.23-.99Z"/><path class="cls-1" d="m1.87,33.1h0c-.17.22-.45.44-.93.44-.53,0-.94-.25-.94-.78,0-.66.52-.79,1.21-.9.39-.06.67-.1.67-.4s-.23-.49-.62-.49c-.45,0-.68.19-.69.61H.14c.02-.54.37-.94,1.11-.94.59,0,1.03.22,1.03.88v1.33c0,.23.05.35.3.3h.02v.32c-.05.02-.12.04-.24.04-.29,0-.44-.13-.48-.42Zm.01-.64v-.47c-.15.09-.4.16-.64.21-.44.08-.79.16-.79.57,0,.37.29.45.58.45.58,0,.85-.43.85-.75Z"/><path class="cls-1" d="m3.35,31.07h.01c.2-.26.48-.43.88-.43.58,0,.94.32.94.89v1.96h-.44v-1.92c0-.36-.24-.57-.63-.57-.44,0-.77.31-.77.77v1.71h-.44v-2.79h.44v.37Z"/><path class="cls-1" d="m6.62,29.63h.44v.54h-.44v-.54Zm0,1.07h.44v2.79h-.44v-2.79Z"/><path class="cls-1" d="m8.09,31.07h.01c.2-.26.48-.43.88-.43.58,0,.94.32.94.89v1.96h-.44v-1.92c0-.36-.24-.57-.63-.57-.44,0-.76.31-.76.77v1.71h-.44v-2.79h.44v.37Z"/><path class="cls-1" d="m10.16,30.7h.47l.58,1.77c.08.25.18.59.18.59h.01s.1-.34.18-.59l.59-1.77h.45l-1,2.79h-.49l-.97-2.79Z"/><path class="cls-1" d="m12.72,32.1c0-.81.53-1.46,1.32-1.46.83,0,1.28.65,1.28,1.57h-2.15c.03.57.34,1,.9,1,.4,0,.67-.19.77-.57h.43c-.13.6-.57.94-1.2.94-.85,0-1.35-.66-1.35-1.46Zm.46-.23h1.68c-.03-.55-.31-.89-.81-.89s-.8.39-.86.89Z"/><path class="cls-1" d="m16.19,31.07h.01c.2-.26.48-.43.88-.43.58,0,.94.32.94.89v1.96h-.44v-1.92c0-.36-.24-.57-.63-.57-.44,0-.76.31-.76.77v1.71h-.44v-2.79h.44v.37Z"/><path class="cls-1" d="m18.36,30.7h.4v-.88h.44v.88h.54v.36h-.54v1.81c0,.19.1.26.28.26.09,0,.18-.02.23-.04h.02v.38c-.1.02-.22.04-.35.04-.36,0-.61-.15-.61-.54v-1.91h-.4v-.36Z"/><path class="cls-1" d="m20.01,32.1c0-.81.52-1.46,1.35-1.46s1.34.66,1.34,1.46-.51,1.46-1.34,1.46-1.35-.66-1.35-1.46Zm2.24,0c0-.61-.3-1.1-.89-1.1s-.9.49-.9,1.1.31,1.1.9,1.1.89-.48.89-1.1Z"/><path class="cls-1" d="m23.58,31.16h.01c.17-.27.46-.5.83-.5.08,0,.12.01.18.03v.42h-.02c-.06-.02-.11-.03-.19-.03-.43,0-.81.32-.81.85v1.55h-.44v-2.79h.44v.46Z"/><path class="cls-1" d="m24.95,34.35v-.39h.02c.06.03.15.06.3.06.18,0,.31-.07.42-.34l.11-.28-1.09-2.7h.47l.66,1.73c.09.23.19.54.19.54h.01s.1-.31.18-.54l.64-1.73h.46l-1.19,3.01c-.23.58-.44.69-.78.69-.17,0-.27-.01-.39-.06Z"/><path class="cls-1" d="m28.33,32.1c0-.81.52-1.46,1.35-1.46s1.34.66,1.34,1.46-.51,1.46-1.34,1.46-1.35-.66-1.35-1.46Zm2.24,0c0-.61-.3-1.1-.89-1.1s-.9.49-.9,1.1.31,1.1.9,1.1.89-.48.89-1.1Z"/><path class="cls-1" d="m31.22,30.7h.38v-.45c0-.48.27-.65.74-.65.09,0,.16,0,.22.01v.37c-.08,0-.1,0-.14,0-.28,0-.38.07-.38.3v.42h.52v.36h-.52v2.43h-.44v-2.43h-.38v-.36Z"/><path class="cls-1" d="m34.29,33.12h-.01v.37h-.44v-3.85h.44v1.47h.01c.21-.29.49-.46.89-.46.71,0,1.18.54,1.18,1.46s-.45,1.47-1.2,1.47c-.38,0-.65-.13-.88-.45Zm1.63-1.01c0-.62-.25-1.1-.78-1.1-.61,0-.89.5-.89,1.1s.29,1.09.88,1.09c.53,0,.79-.46.79-1.09Z"/><path class="cls-1" d="m36.81,29.63h.44v.54h-.44v-.54Zm0,1.07h.44v2.79h-.44v-2.79Z"/><path class="cls-1" d="m37.68,32.1c0-.81.52-1.46,1.35-1.46s1.34.66,1.34,1.46-.51,1.46-1.34,1.46-1.35-.66-1.35-1.46Zm2.24,0c0-.61-.3-1.1-.89-1.1s-.9.49-.9,1.1.31,1.1.9,1.1.89-.48.89-1.1Z"/><path class="cls-1" d="m40.81,30.7h.44v.4h.01c.17-.27.47-.46.82-.46s.61.17.73.5h.01c.18-.32.51-.5.85-.5.5,0,.85.32.85.89v1.96h-.44v-1.93c0-.34-.23-.55-.51-.55-.36,0-.68.31-.68.75v1.73h-.44v-1.93c0-.34-.19-.55-.48-.55-.34,0-.72.31-.72.75v1.73h-.44v-2.79Z"/><path class="cls-1" d="m46.8,33.1h0c-.17.22-.45.44-.93.44-.53,0-.94-.25-.94-.78,0-.66.52-.79,1.21-.9.39-.06.67-.1.67-.4s-.23-.49-.62-.49c-.45,0-.68.19-.7.61h-.42c.02-.54.37-.94,1.11-.94.59,0,1.03.22,1.03.88v1.33c0,.23.05.35.3.3h.02v.32c-.05.02-.12.04-.24.04-.29,0-.44-.13-.48-.42Zm.01-.64v-.47c-.15.09-.4.16-.64.21-.44.08-.79.16-.79.57,0,.37.29.45.58.45.58,0,.85-.43.85-.75Z"/><path class="cls-1" d="m47.66,32.58h.45c.06.49.38.62.8.62.46,0,.65-.2.65-.46,0-.31-.21-.39-.73-.5-.55-.11-1.04-.23-1.04-.83,0-.46.36-.76,1-.76.69,0,1.03.33,1.09.87h-.45c-.04-.37-.24-.53-.66-.53s-.56.18-.56.4c0,.3.27.36.75.46.56.11,1.03.24,1.03.88,0,.56-.46.85-1.1.85-.76,0-1.19-.36-1.23-.99Z"/><path class="cls-1" d="m50.24,32.58h.45c.06.49.38.62.8.62.46,0,.65-.2.65-.46,0-.31-.21-.39-.73-.5-.55-.11-1.04-.23-1.04-.83,0-.46.36-.76,1-.76.69,0,1.03.33,1.09.87h-.45c-.04-.37-.24-.53-.66-.53s-.56.18-.56.4c0,.3.27.36.75.46.56.11,1.03.24,1.03.88,0,.56-.46.85-1.1.85-.76,0-1.19-.36-1.23-.99Z"/><path class="cls-1" d="m55.56,33.1h0c-.17.22-.45.44-.93.44-.53,0-.94-.25-.94-.78,0-.66.52-.79,1.21-.9.39-.06.67-.1.67-.4s-.23-.49-.62-.49c-.45,0-.68.19-.7.61h-.42c.02-.54.37-.94,1.11-.94.59,0,1.03.22,1.03.88v1.33c0,.23.05.35.3.3h.02v.32c-.05.02-.12.04-.24.04-.29,0-.44-.13-.48-.42Zm.01-.64v-.47c-.15.09-.4.16-.64.21-.44.08-.79.16-.79.57,0,.37.29.45.58.45.58,0,.85-.43.85-.75Z"/><path class="cls-1" d="m57.04,31.07h.01c.2-.26.48-.43.88-.43.58,0,.94.32.94.89v1.96h-.44v-1.92c0-.36-.24-.57-.63-.57-.44,0-.76.31-.76.77v1.71h-.44v-2.79h.44v.37Z"/><path class="cls-1" d="m59.29,32.1c0-.93.53-1.46,1.22-1.46.39,0,.7.19.87.46h.01v-1.46h.44v3.85h-.44v-.34h-.01c-.21.27-.47.42-.86.42-.76,0-1.23-.57-1.23-1.47Zm2.13,0c0-.65-.31-1.1-.89-1.1-.53,0-.8.47-.8,1.1s.27,1.09.8,1.09c.62,0,.88-.46.88-1.09Z"/><path class="cls-1" d="m63.11,30.7h.4v-.88h.44v.88h.54v.36h-.54v1.81c0,.19.1.26.28.26.09,0,.18-.02.23-.04h.02v.38c-.1.02-.22.04-.35.04-.36,0-.61-.15-.61-.54v-1.91h-.4v-.36Z"/><path class="cls-1" d="m64.76,32.1c0-.81.53-1.46,1.32-1.46.83,0,1.28.65,1.28,1.57h-2.15c.03.57.34,1,.9,1,.4,0,.67-.19.77-.57h.43c-.13.6-.57.94-1.2.94-.85,0-1.35-.66-1.35-1.46Zm.46-.23h1.68c-.03-.55-.31-.89-.81-.89s-.8.39-.86.89Z"/><path class="cls-1" d="m67.63,32.1c0-.81.52-1.46,1.35-1.46.66,0,1.09.38,1.19.97h-.44c-.06-.38-.33-.61-.75-.61-.59,0-.9.49-.9,1.1s.31,1.1.9,1.1c.45,0,.72-.26.76-.69h.43c-.06.67-.5,1.06-1.19,1.06-.83,0-1.35-.66-1.35-1.46Z"/><path class="cls-1" d="m71.02,31.07h.01c.2-.26.48-.43.88-.43.58,0,.94.32.94.89v1.96h-.44v-1.92c0-.36-.24-.57-.63-.57-.44,0-.76.31-.76.77v1.71h-.44v-3.85h.44v1.43Z"/><path class="cls-1" d="m73.87,31.07h.01c.2-.26.48-.43.88-.43.58,0,.94.32.94.89v1.96h-.44v-1.92c0-.36-.24-.57-.63-.57-.44,0-.76.31-.76.77v1.71h-.44v-2.79h.44v.37Z"/><path class="cls-1" d="m76.13,32.1c0-.81.52-1.46,1.35-1.46s1.34.66,1.34,1.46-.51,1.46-1.34,1.46-1.35-.66-1.35-1.46Zm2.24,0c0-.61-.3-1.1-.89-1.1s-.9.49-.9,1.1.31,1.1.9,1.1.89-.48.89-1.1Z"/><path class="cls-1" d="m79.25,30.7h.44v.4h.01c.17-.27.47-.46.82-.46s.61.17.73.5h.01c.18-.32.51-.5.85-.5.5,0,.85.32.85.89v1.96h-.44v-1.93c0-.34-.23-.55-.51-.55-.36,0-.68.31-.68.75v1.73h-.44v-1.93c0-.34-.19-.55-.48-.55-.34,0-.72.31-.72.75v1.73h-.44v-2.79Z"/><path class="cls-1" d="m85.24,33.1h0c-.17.22-.45.44-.93.44-.53,0-.94-.25-.94-.78,0-.66.52-.79,1.21-.9.39-.06.67-.1.67-.4s-.23-.49-.62-.49c-.45,0-.68.19-.7.61h-.42c.02-.54.37-.94,1.11-.94.59,0,1.03.22,1.03.88v1.33c0,.23.05.35.3.3h.02v.32c-.05.02-.12.04-.24.04-.29,0-.44-.13-.48-.42Zm.01-.64v-.47c-.15.09-.4.16-.64.21-.44.08-.79.16-.79.57,0,.37.29.45.58.45.58,0,.85-.43.85-.75Z"/><path class="cls-1" d="m86.11,32.58h.45c.06.49.38.62.8.62.46,0,.65-.2.65-.46,0-.31-.21-.39-.73-.5-.55-.11-1.04-.23-1.04-.83,0-.46.36-.76,1-.76.69,0,1.03.33,1.09.87h-.45c-.04-.37-.24-.53-.66-.53s-.56.18-.56.4c0,.3.27.36.75.46.56.11,1.03.24,1.03.88,0,.56-.46.85-1.1.85-.76,0-1.19-.36-1.23-.99Z"/><path class="cls-1" d="m88.68,32.58h.45c.06.49.38.62.8.62.46,0,.65-.2.65-.46,0-.31-.21-.39-.73-.5-.55-.11-1.04-.23-1.04-.83,0-.46.36-.76,1-.76.69,0,1.03.33,1.09.87h-.45c-.04-.37-.24-.53-.66-.53s-.56.18-.56.4c0,.3.27.36.75.46.56.11,1.03.24,1.03.88,0,.56-.46.85-1.1.85-.76,0-1.19-.36-1.23-.99Z"/></g></svg>