<?xml version="1.0" encoding="UTF-8"?><svg id="Layer_2" xmlns="http://www.w3.org/2000/svg" viewBox="0 0 441.42 91.76"><defs><style>.cls-1{font-family:Larken-Medium, Larken;font-size:80px;}.cls-2{font-family:AktivGrotesk-Bold, 'Aktiv Grotesk';font-size:21px;}</style></defs><g id="Layer_1-2"><g><g><path d="M11.84,21.55v42.56h10.72c6.24,0,12.8-8.56,14.56-9.84h.4v12.96H0v-.32c.32-1.44,1.84-6.64,1.84-11.6V21.55C1.84,16.51,.32,11.39,0,9.87v-.24H13.68v.24c-.32,1.52-1.84,6.64-1.84,11.68Z"/><path d="M55.92,67.23h-13.04v-.32c.32-1.44,1.84-6.64,1.84-11.6v-16.16c0-5.04-1.52-10.16-1.84-11.68v-.24h11.2v28.08c0,4.96,1.52,10.16,1.84,11.6v.32Z"/><path d="M59.76,27.47v-.24h16.16v.24c-.48,1.44-1.68,5.92,.16,10.24l8.56,20.64,8.24-20.56c1.76-4.32,.4-8.88-.16-10.32v-.24h8.88v.24c-.56,.96-3.12,5.04-4.8,9.04l-12.24,30.72h-6.32l-12.32-29.04c-2-4.56-4.8-9.2-6.16-10.72Z"/><path d="M105.76,13.31c0-3.44,2.8-6.16,6.24-6.16s6.32,2.72,6.32,6.16-2.88,6.16-6.32,6.16-6.24-2.72-6.24-6.16Zm13.2,53.92h-13.04v-.32c.32-1.44,1.84-6.64,1.84-11.6v-16.16c0-5.04-1.52-10.16-1.84-11.68v-.24h11.2v28.08c0,4.96,1.52,10.16,1.84,11.6v.32Z"/><path d="M138.16,67.23h-13.04v-.32c.32-1.44,1.84-6.64,1.84-11.6v-16.16c0-5.04-1.52-10.16-1.84-11.68v-.24h11.2v6.88c3.12-4.48,7.36-7.36,12.96-7.36,6.8,0,13.12,4,13.12,13.52v15.04c0,4.96,1.52,10.16,1.84,11.6v.32h-13.12v-.32c.32-1.44,1.84-6.64,1.84-11.6v-13.84c0-6.16-3.76-8.64-7.84-8.72-3.12,0-6,1.36-8.8,3.76v18.8c0,4.96,1.52,10.16,1.84,11.6v.32Z"/><path d="M179.04,53.79c-1.92,.64-3.44,1.84-3.44,3.44,0,2.48,2.88,2.8,5.84,2.8h13.04c7.52,0,12.24,4,12.24,10.96,0,10.4-11.92,12.24-20,12.24-6.08,0-17.68-1.36-17.68-9.36,0-2.56,1.28-4.96,3.36-6.72-2.08-1.6-2.8-3.84-2.8-6.08,0-4.48,2.8-7.2,7.04-8.4-4.16-2.32-7.28-6.24-7.28-11.84,0-9.28,8.72-14.08,16.64-14.08,3.12,0,6.32,.72,9.12,2.16,2.24-4.4,6.24-7.04,12-6.24l-1.44,7.6-.24,.08c-2.48-1.36-5.52-1.84-8.8-.56,3.6,2.32,6.24,6,6.24,11.04,0,9.28-8.96,14.16-16.88,14.24-2.32,0-4.72-.48-6.96-1.28Zm8.64,26.4c7.12,0,12.64-2.64,12.64-6.48,0-2.48-1.76-4.48-6.08-4.48h-13.52c-2.32,0-4.24-.32-5.68-.8-.24,.72-.24,1.6-.24,2.48-.08,5.28,3.92,9.28,12.88,9.28Zm5.76-39.36c0-6.48-2.8-11.28-7.44-11.28s-7.28,4.8-7.28,11.28,2.72,11.36,7.28,11.36,7.44-4.88,7.44-11.36Z"/></g><g><path d="M285.66,10.77h24.48c10.4,0,17.76,6.48,17.76,14.64,0,7.12-5.28,11.28-11.2,13.36,7.04,1.76,13.84,6,13.84,14.48,0,9.92-9.2,15.12-20,15.12h-24.88v-.32c.32-1.44,1.84-6.64,1.84-11.6V22.69c0-5.04-1.52-10.16-1.84-11.68v-.24Zm31.68,14.64c0-5.84-3.36-11.52-10.48-11.52h-9.36v23.52h8.96c7.12,0,10.88-5.52,10.88-12Zm2.72,27.84c0-7.76-4.88-12.64-12.8-12.64h-8.88l-.88,.08v24.48h9.76c8.88,0,12.8-4.4,12.8-11.92Z"/><path d="M334.86,55.41v-15.12c0-5.04-1.52-10.16-1.84-11.68v-.24h11.2v25.84c0,6.16,3.68,8.64,7.76,8.64,2.96,0,5.92-1.28,8.72-3.6-.08-.88-.08-1.68-.08-2.48v-16.48c0-5.04-1.52-10.16-1.84-11.68v-.24h11.2v28.08c0,4.96,1.52,10.16,1.84,11.6v.32h-9.28c-.56-1.28-1.2-4.16-1.6-6.96-3.36,4.8-7.44,7.6-12.96,7.6-6.8,0-13.12-4-13.12-13.6Z"/><path d="M377.66,14.45c0-3.44,2.8-6.16,6.24-6.16s6.32,2.72,6.32,6.16-2.88,6.16-6.32,6.16-6.24-2.72-6.24-6.16Zm13.2,53.92h-13.04v-.32c.32-1.44,1.84-6.64,1.84-11.6v-16.16c0-5.04-1.52-10.16-1.84-11.68v-.24h11.2v28.08c0,4.96,1.52,10.16,1.84,11.6v.32Z"/><path d="M410.14,68.37h-13.12v-.32c.32-1.44,1.84-6.64,1.84-11.6V21.89c0-4.96-1.52-9.92-2.08-11.36l-.08-.24,1.84-.32,9.76-1.2V56.45c0,4.96,1.52,10.16,1.84,11.6v.32Z"/><path d="M419.5,57.25V31.57h-5.84v-2.64c7.52-2.8,11.44-7.44,14.56-12.96h.72v12.4h11.04v3.2h-11.04v24.64c0,4.4,2.16,6.48,5.68,6.48,1.76,0,4.24-.48,6.8-2.08-2,4.56-5.92,8.48-11.84,8.48-6.4,0-10.08-4.56-10.08-11.84Z"/></g><text class="cls-2" transform="translate(21.77 23.24)"><tspan x="0" y="0">the</tspan></text><text class="cls-2" transform="translate(330.58 23.24)"><tspan x="0" y="0">the</tspan></text><text class="cls-1" transform="translate(218.05 68.8)"><tspan x="0" y="0">&amp;</tspan></text></g></g></svg>