<?xml version="1.0" encoding="UTF-8"?><svg id="Layer_2" xmlns="http://www.w3.org/2000/svg" viewBox="0 0 183.07 35.04"><defs><style>.cls-1{fill:none;}.cls-1,.cls-2{stroke-width:0px;}.cls-2{fill:#231f20;}</style></defs><g id="Layer_1-2"><rect class="cls-1" width="183.07" height="34.9"/><path class="cls-2" d="M3.98,31.06h-.1v3.26H0V0h3.89v13.06h.1c1.87-2.54,4.37-4.13,7.97-4.13,6.29,0,10.56,4.8,10.56,13.06s-3.98,13.06-10.71,13.06c-3.36,0-5.81-1.2-7.82-3.98ZM18.53,22.03c0-5.57-2.26-9.79-6.96-9.79-5.42,0-7.92,4.42-7.92,9.79s2.59,9.74,7.87,9.74c4.75,0,7.01-4.13,7.01-9.74Z"/><path class="cls-2" d="M26.4,0h3.89v4.8h-3.89V0ZM26.4,9.5h3.89v24.82h-3.89V9.5Z"/><path class="cls-2" d="M34.18,21.94c0-7.2,4.61-13.06,12-13.06s11.95,5.86,11.95,13.06-4.51,13.06-11.95,13.06-12-5.86-12-13.06ZM54.15,21.94c0-5.47-2.69-9.84-7.97-9.84s-8.02,4.37-8.02,9.84,2.74,9.79,8.02,9.79,7.97-4.32,7.97-9.79Z"/><path class="cls-2" d="M60.62,21.94c0-7.2,4.61-13.06,12-13.06,5.86,0,9.75,3.36,10.61,8.64h-3.94c-.58-3.36-2.93-5.42-6.67-5.42-5.28,0-8.02,4.37-8.02,9.84s2.74,9.79,8.02,9.79c4.03,0,6.43-2.3,6.77-6.14h3.84c-.53,5.95-4.42,9.41-10.61,9.41-7.39,0-12-5.86-12-13.06Z"/><path class="cls-2" d="M102.72,34.32v-3.41h-.1c-1.78,2.4-3.89,3.98-7.49,3.98-5.09,0-8.35-3.07-8.35-8.21V9.5h3.89v17.09c0,3.22,2.06,5.09,5.57,5.09,3.94,0,6.48-2.98,6.48-6.91v-15.27h3.89v24.82h-3.89Z"/><path class="cls-2" d="M115.87,31.06h-.1v3.26h-3.89V0h3.89v13.06h.1c1.87-2.54,4.37-4.13,7.97-4.13,6.29,0,10.56,4.8,10.56,13.06s-3.98,13.06-10.71,13.06c-3.36,0-5.81-1.2-7.82-3.98ZM130.42,22.03c0-5.57-2.26-9.79-6.96-9.79-5.42,0-7.92,4.42-7.92,9.79s2.59,9.74,7.87,9.74c4.75,0,7.01-4.13,7.01-9.74Z"/><path class="cls-2" d="M136.89,21.94c0-7.2,4.7-13.06,11.76-13.06,7.44,0,11.43,5.76,11.43,13.97h-19.2c.29,5.04,3.02,8.88,8.02,8.88,3.6,0,6-1.73,6.86-5.09h3.79c-1.15,5.33-5.04,8.35-10.66,8.35-7.58,0-12-5.86-12-13.06ZM140.97,19.92h14.93c-.24-4.94-2.78-7.97-7.25-7.97s-7.1,3.46-7.68,7.97Z"/><path class="cls-2" d="M162.28,26.26h3.98c.53,4.32,3.41,5.52,7.11,5.52,4.08,0,5.76-1.78,5.76-4.08,0-2.78-1.92-3.5-6.48-4.46-4.9-1.01-9.26-2.02-9.26-7.44,0-4.13,3.17-6.82,8.93-6.82,6.14,0,9.17,2.93,9.75,7.78h-3.98c-.38-3.26-2.16-4.7-5.86-4.7s-4.99,1.58-4.99,3.55c0,2.69,2.4,3.22,6.67,4.08,4.99,1.01,9.17,2.11,9.17,7.82,0,4.99-4.08,7.54-9.79,7.54-6.82,0-10.61-3.22-10.99-8.79Z"/></g></svg>