<?xml version="1.0" encoding="UTF-8"?><svg id="Layer_3" xmlns="http://www.w3.org/2000/svg" viewBox="0 0 172.16 33.89"><defs><style>.cls-1{stroke-width:0px;}</style></defs><path class="cls-1" d="m7.72,0h3.09v27.32h-3.09s0-27.32,0-27.32Z"/><path class="cls-1" d="m14.17,0h3.09v3.82h-3.09V0Zm0,7.56h3.09v19.76h-3.09V7.56Z"/><path class="cls-1" d="m18.49,7.56h3.32l4.09,12.53c.57,1.76,1.3,4.17,1.3,4.17h.08s.73-2.45,1.3-4.17l4.17-12.53h3.21l-7.11,19.75h-3.44s-6.92-19.75-6.92-19.75Z"/><path class="cls-1" d="m37.18,0h3.09v3.82h-3.09V0Zm0,7.56h3.09v19.76h-3.09V7.56Z"/><path class="cls-1" d="m46.62,10.16h.08c1.41-1.87,3.4-3.06,6.27-3.06,4.13,0,6.65,2.25,6.65,6.34v13.87h-3.09v-13.6c0-2.56-1.68-4.01-4.47-4.01-3.13,0-5.43,2.22-5.43,5.46v12.15h-3.09V7.56h3.09v2.6h0Z"/><path class="cls-1" d="m62.25,28.43h2.87c.31,2.18,2.37,3.02,5.42,3.02,3.63,0,5.66-1.64,5.66-5.08v-2.79h-.08c-1.45,1.87-3.02,3.06-5.85,3.06-5.12,0-8.63-4.09-8.63-9.78,0-6.15,3.86-9.74,8.44-9.74,2.87,0,4.7,1.11,6.04,2.98h.08v-2.52h3.09v18.67c0,5.2-3.44,7.64-8.67,7.64s-8.02-2.06-8.37-5.46Zm14.18-11.73c0-4.32-1.83-6.99-6.04-6.99-3.71,0-5.58,2.9-5.58,7.18s1.95,7.14,5.62,7.14c4.55,0,6-3.17,6-7.34h0Z"/><path class="cls-1" d="m1.65,27.39v-.63H.29v-.68h1.36v-.83h.55v.83h2.8c.3,0,.4-.16.4-.43,0-.13-.03-.28-.06-.36v-.03h.58c.03.16.06.34.06.54,0,.55-.23.95-.83.95h-2.96v.63h-.55.01Z"/><path class="cls-1" d="m2.22,24.08v-.02c-.41-.31-.67-.74-.67-1.37,0-.9.49-1.45,1.38-1.45h3.03v.68h-2.97c-.56,0-.88.37-.88.98,0,.68.48,1.19,1.19,1.19h2.65v.68H0v-.68h2.22Z"/><path class="cls-1" d="m3.81,20.8c-1.25,0-2.27-.82-2.27-2.04,0-1.29,1-1.99,2.43-1.99v3.34c.88-.05,1.54-.53,1.54-1.39,0-.63-.3-1.04-.88-1.19v-.66c.93.2,1.45.88,1.45,1.85,0,1.32-1.02,2.09-2.27,2.09h0Zm-.35-.71v-2.6c-.86.04-1.39.48-1.39,1.26s.6,1.24,1.39,1.33h0Z"/><path class="cls-1" d="m105.75,27.52v-.63h-1.36v-.68h1.36v-.83h.55v.83h2.8c.3,0,.4-.16.4-.43,0-.13-.03-.28-.06-.36v-.03h.58c.03.16.06.34.06.54,0,.55-.23.95-.83.95h-2.96v.63h-.55,0Z"/><path class="cls-1" d="m106.32,24.22v-.02c-.41-.31-.67-.74-.67-1.37,0-.9.49-1.45,1.38-1.45h3.03v.68h-2.97c-.56,0-.88.37-.88.98,0,.68.48,1.19,1.19,1.19h2.65v.68h-5.97v-.68h2.24Z"/><path class="cls-1" d="m107.91,20.94c-1.25,0-2.27-.82-2.27-2.04,0-1.29,1-1.99,2.43-1.99v3.34c.88-.05,1.54-.53,1.54-1.39,0-.63-.3-1.04-.88-1.19v-.66c.93.2,1.45.88,1.45,1.85,0,1.32-1.02,2.09-2.27,2.09h0Zm-.35-.71v-2.6c-.86.04-1.39.48-1.39,1.26s.6,1.24,1.39,1.33h0Z"/><path class="cls-1" d="m114.91,24.72h-.08v2.6h-3.09V0h3.09v10.39h.08c1.49-2.03,3.48-3.29,6.34-3.29,5,0,8.41,3.82,8.41,10.39s-3.17,10.39-8.52,10.39c-2.67,0-4.62-.96-6.23-3.17h0Zm11.58-7.18c0-4.43-1.8-7.79-5.54-7.79-4.32,0-6.3,3.52-6.3,7.79s2.06,7.76,6.27,7.76c3.78,0,5.58-3.29,5.58-7.76h-.01Z"/><path class="cls-1" d="m144.37,27.32v-2.71h-.08c-1.41,1.91-3.09,3.17-5.96,3.17-4.05,0-6.65-2.45-6.65-6.53V7.56h3.1v13.6c0,2.56,1.64,4.05,4.43,4.05,3.13,0,5.16-2.37,5.16-5.5V7.56h3.09v19.76h-3.09Z"/><path class="cls-1" d="m150.72,0h3.09v3.82h-3.09V0Zm0,7.56h3.09v19.76h-3.09V7.56Z"/><path class="cls-1" d="m157.18,0h3.09v27.32h-3.09V0Z"/><path class="cls-1" d="m162.38,7.56h2.87V1.34h3.09v6.23h3.82v2.52h-3.82v12.84c0,1.38.73,1.83,1.99,1.83.61,0,1.3-.15,1.64-.27h.11v2.67c-.73.15-1.57.27-2.48.27-2.52,0-4.36-1.03-4.36-3.82v-13.52h-2.87v-2.52h0Z"/><path class="cls-1" d="m85.47,22.56c0-3.06,1.88-4.62,4.48-6.21l-.58-.75c-1.18-1.53-1.59-2.74-1.59-4.25,0-2.34,1.94-4.13,4.45-4.13,2.28,0,4.48,1.42,4.48,4.3,0,2.51-1.82,3.9-3.78,5.17l4.1,5.23c.43-1.13.69-2.4.69-3.81h2.02c0,1.96-.46,3.93-1.33,5.57l3.12,3.99h-2.8l-1.62-2.08c-1.39,1.5-3.29,2.48-5.72,2.48-3,0-5.92-2.14-5.92-5.52h0Zm10.37,1.39l-4.74-6.09c-1.88,1.24-3.29,2.43-3.29,4.71,0,2.05,1.68,3.47,3.73,3.47,1.73,0,3.21-.78,4.3-2.08h0Zm-4.59-9.42l.55.72c1.79-1.16,2.66-2.2,2.66-3.78,0-1.42-.87-2.31-2.22-2.31s-2.25.9-2.25,2.22c0,1.16.38,1.99,1.27,3.15h-.01Z"/><path class="cls-1" d="m82.54,32.29h0c-.13.17-.36.35-.73.35-.42,0-.74-.19-.74-.61,0-.52.41-.62.95-.71.31-.05.53-.08.53-.31s-.18-.39-.49-.39c-.36,0-.53.15-.55.48h-.33c.01-.42.29-.74.87-.74.47,0,.81.17.81.7v1.04c0,.18.04.28.23.23h.01v.25s-.1.03-.19.03c-.23,0-.34-.1-.38-.33Zm0-.5v-.37c-.11.07-.31.13-.5.16-.34.06-.62.12-.62.45,0,.29.23.36.45.36.46,0,.67-.33.67-.59Z"/><path class="cls-1" d="m83.71,30.69h0c.16-.21.38-.34.7-.34.46,0,.74.25.74.7v1.54h-.34v-1.51c0-.28-.19-.45-.5-.45-.35,0-.6.25-.6.61v1.35h-.34v-2.19h.34v.29Z"/><path class="cls-1" d="m86.29,29.56h.34v.42h-.34v-.42Zm0,.84h.34v2.19h-.34v-2.19Z"/><path class="cls-1" d="m87.44,30.69h0c.16-.21.38-.34.7-.34.46,0,.74.25.74.7v1.54h-.34v-1.51c0-.28-.19-.45-.5-.45-.35,0-.6.25-.6.61v1.35h-.34v-2.19h.34v.29Z"/><path class="cls-1" d="m89.16,30.4h.32v-.69h.34v.69h.42v.28h-.42v1.42c0,.15.08.2.22.2.07,0,.14-.02.18-.03h.01v.3c-.08.02-.17.03-.28.03-.28,0-.48-.11-.48-.42v-1.5h-.32v-.28Z"/><path class="cls-1" d="m90.46,31.5c0-.64.42-1.15,1.04-1.15.66,0,1.01.51,1.01,1.23h-1.7c.03.45.27.78.71.78.32,0,.53-.15.61-.45h.33c-.1.47-.45.74-.94.74-.67,0-1.06-.52-1.06-1.15Zm.36-.18h1.32c-.02-.44-.25-.7-.64-.7s-.63.31-.68.7Z"/><path class="cls-1" d="m93.19,30.76h0c.13-.21.36-.39.65-.39.06,0,.1,0,.14.03v.33h-.01c-.05-.02-.08-.02-.15-.02-.34,0-.64.25-.64.67v1.22h-.34v-2.19h.34v.37Z"/><path class="cls-1" d="m95.56,32.29h0c-.13.17-.36.35-.73.35-.42,0-.74-.19-.74-.61,0-.52.41-.62.96-.71.31-.05.53-.08.53-.31s-.18-.39-.49-.39c-.36,0-.53.15-.55.48h-.33c.01-.42.29-.74.87-.74.47,0,.81.17.81.7v1.04c0,.18.04.28.23.23h.01v.25s-.1.03-.19.03c-.22,0-.34-.1-.38-.33Zm0-.5v-.37c-.12.07-.31.13-.5.16-.34.06-.62.12-.62.45,0,.29.23.36.45.36.46,0,.67-.33.67-.59Z"/><path class="cls-1" d="m96.26,31.5c0-.64.41-1.15,1.06-1.15.52,0,.86.3.94.76h-.35c-.05-.3-.26-.48-.59-.48-.47,0-.71.39-.71.87s.24.87.71.87c.36,0,.57-.2.6-.54h.34c-.05.53-.39.83-.94.83-.65,0-1.06-.52-1.06-1.15Z"/><path class="cls-1" d="m98.45,30.4h.32v-.69h.34v.69h.42v.28h-.42v1.42c0,.15.08.2.22.2.07,0,.14-.02.18-.03h.01v.3c-.08.02-.17.03-.28.03-.28,0-.48-.11-.48-.42v-1.5h-.32v-.28Z"/><path class="cls-1" d="m99.89,29.56h.34v.42h-.34v-.42Zm0,.84h.34v2.19h-.34v-2.19Z"/><path class="cls-1" d="m100.48,30.4h.37l.45,1.39c.06.2.14.46.14.46h0s.08-.27.14-.46l.46-1.39h.36l-.79,2.19h-.38l-.77-2.19Z"/><path class="cls-1" d="m102.5,31.5c0-.64.42-1.15,1.04-1.15.66,0,1.01.51,1.01,1.23h-1.7c.03.45.27.78.71.78.32,0,.53-.15.61-.45h.33c-.1.47-.45.74-.94.74-.67,0-1.06-.52-1.06-1.15Zm.36-.18h1.32c-.02-.44-.25-.7-.64-.7s-.63.31-.68.7Z"/><path class="cls-1" d="m105.56,29.56h.34v.42h-.34v-.42Zm0,.84h.34v2.19h-.34v-2.19Z"/><path class="cls-1" d="m106.72,30.69h0c.16-.21.38-.34.7-.34.46,0,.74.25.74.7v1.54h-.34v-1.51c0-.28-.19-.45-.5-.45-.35,0-.6.25-.6.61v1.35h-.34v-2.19h.34v.29Z"/><path class="cls-1" d="m108.35,30.4h.37l.45,1.39c.06.2.14.46.14.46h0s.08-.27.14-.46l.46-1.39h.36l-.79,2.19h-.38l-.77-2.19Z"/><path class="cls-1" d="m110.37,31.5c0-.64.42-1.15,1.04-1.15.66,0,1.01.51,1.01,1.23h-1.7c.03.45.27.78.71.78.32,0,.53-.15.61-.45h.33c-.1.47-.45.74-.94.74-.67,0-1.06-.52-1.06-1.15Zm.36-.18h1.32c-.02-.44-.25-.7-.64-.7s-.63.31-.68.7Z"/><path class="cls-1" d="m113.1,30.69h0c.16-.21.38-.34.7-.34.46,0,.74.25.74.7v1.54h-.34v-1.51c0-.28-.19-.45-.5-.45-.35,0-.6.25-.6.61v1.35h-.34v-2.19h.34v.29Z"/><path class="cls-1" d="m114.82,30.4h.32v-.69h.34v.69h.42v.28h-.42v1.42c0,.15.08.2.22.2.07,0,.14-.02.18-.03h.01v.3c-.08.02-.17.03-.28.03-.28,0-.48-.11-.48-.42v-1.5h-.32v-.28Z"/><path class="cls-1" d="m116.11,31.5c0-.64.41-1.15,1.06-1.15s1.06.52,1.06,1.15-.4,1.15-1.06,1.15-1.06-.52-1.06-1.15Zm1.76,0c0-.48-.24-.87-.7-.87s-.71.39-.71.87.24.87.71.87.7-.38.7-.87Z"/><path class="cls-1" d="m118.92,30.76h0c.13-.21.36-.39.65-.39.06,0,.1,0,.14.03v.33h-.01c-.05-.02-.08-.02-.15-.02-.34,0-.64.25-.64.67v1.22h-.34v-2.19h.34v.37Z"/><path class="cls-1" d="m120.01,33.27v-.31h.02s.12.05.23.05c.14,0,.24-.05.33-.27l.08-.22-.86-2.13h.37l.52,1.37c.07.18.15.43.15.43h0s.08-.25.14-.43l.5-1.37h.36l-.94,2.37c-.18.45-.35.55-.61.55-.13,0-.22,0-.31-.05Z"/><path class="cls-1" d="m122.67,31.5c0-.64.41-1.15,1.06-1.15s1.06.52,1.06,1.15-.4,1.15-1.06,1.15-1.06-.52-1.06-1.15Zm1.76,0c0-.48-.24-.87-.7-.87s-.71.39-.71.87.24.87.71.87.7-.38.7-.87Z"/><path class="cls-1" d="m124.95,30.4h.3v-.35c0-.38.22-.51.58-.51.07,0,.13,0,.17,0v.29c-.06,0-.08,0-.11,0-.22,0-.3.06-.3.23v.33h.41v.28h-.41v1.91h-.34v-1.91h-.3v-.28Z"/><path class="cls-1" d="m127.36,32.3h0v.29h-.34v-3.03h.34v1.15h0c.17-.23.39-.37.7-.37.56,0,.93.42.93,1.15s-.35,1.15-.95,1.15c-.3,0-.51-.11-.69-.35Zm1.29-.8c0-.49-.2-.87-.62-.87-.48,0-.7.39-.7.87s.23.86.7.86c.42,0,.62-.37.62-.86Z"/><path class="cls-1" d="m129.35,29.56h.34v.42h-.34v-.42Zm0,.84h.34v2.19h-.34v-2.19Z"/><path class="cls-1" d="m130.04,31.5c0-.64.41-1.15,1.06-1.15s1.06.52,1.06,1.15-.4,1.15-1.06,1.15-1.06-.52-1.06-1.15Zm1.76,0c0-.48-.24-.87-.7-.87s-.71.39-.71.87.24.87.71.87.7-.38.7-.87Z"/><path class="cls-1" d="m132.5,30.4h.34v.31h0c.14-.21.37-.37.65-.37s.48.14.57.39h0c.14-.25.4-.39.67-.39.39,0,.67.25.67.7v1.54h-.34v-1.52c0-.27-.18-.43-.4-.43-.28,0-.54.25-.54.59v1.37h-.34v-1.52c0-.27-.15-.43-.38-.43-.27,0-.56.25-.56.59v1.37h-.34v-2.19Z"/><path class="cls-1" d="m137.22,32.29h0c-.13.17-.36.35-.73.35-.42,0-.74-.19-.74-.61,0-.52.41-.62.96-.71.31-.05.53-.08.53-.31s-.18-.39-.49-.39c-.36,0-.53.15-.55.48h-.33c.01-.42.29-.74.87-.74.47,0,.81.17.81.7v1.04c0,.18.04.28.23.23h.01v.25s-.1.03-.19.03c-.22,0-.34-.1-.38-.33Zm0-.5v-.37c-.12.07-.31.13-.5.16-.34.06-.62.12-.62.45,0,.29.23.36.45.36.46,0,.67-.33.67-.59Z"/><path class="cls-1" d="m137.9,31.88h.35c.05.38.3.49.63.49.36,0,.51-.16.51-.36,0-.25-.17-.31-.57-.39-.43-.09-.82-.18-.82-.66,0-.36.28-.6.79-.6.54,0,.81.26.86.69h-.35c-.03-.29-.19-.42-.52-.42s-.44.14-.44.31c0,.24.21.28.59.36.44.09.81.19.81.69,0,.44-.36.67-.87.67-.6,0-.94-.28-.97-.78Z"/><path class="cls-1" d="m139.93,31.88h.35c.05.38.3.49.63.49.36,0,.51-.16.51-.36,0-.25-.17-.31-.57-.39-.43-.09-.82-.18-.82-.66,0-.36.28-.6.79-.6.54,0,.81.26.86.69h-.35c-.03-.29-.19-.42-.52-.42s-.44.14-.44.31c0,.24.21.28.59.36.44.09.81.19.81.69,0,.44-.36.67-.87.67-.6,0-.94-.28-.97-.78Z"/><path class="cls-1" d="m144.12,32.29h0c-.13.17-.36.35-.73.35-.42,0-.74-.19-.74-.61,0-.52.41-.62.96-.71.31-.05.53-.08.53-.31s-.18-.39-.49-.39c-.36,0-.53.15-.55.48h-.33c.01-.42.29-.74.87-.74.47,0,.81.17.81.7v1.04c0,.18.04.28.23.23h.01v.25s-.1.03-.19.03c-.22,0-.34-.1-.38-.33Zm0-.5v-.37c-.12.07-.31.13-.5.16-.34.06-.62.12-.62.45,0,.29.23.36.45.36.46,0,.67-.33.67-.59Z"/><path class="cls-1" d="m145.29,30.69h0c.16-.21.38-.34.7-.34.46,0,.74.25.74.7v1.54h-.34v-1.51c0-.28-.19-.45-.5-.45-.35,0-.6.25-.6.61v1.35h-.34v-2.19h.34v.29Z"/><path class="cls-1" d="m147.07,31.5c0-.73.42-1.15.96-1.15.31,0,.55.15.69.36h0v-1.15h.34v3.03h-.34v-.27h0c-.17.21-.37.33-.68.33-.6,0-.97-.45-.97-1.15Zm1.68,0c0-.51-.25-.87-.7-.87-.42,0-.63.37-.63.87s.21.86.63.86c.49,0,.7-.37.7-.86Z"/><path class="cls-1" d="m150.07,30.4h.32v-.69h.34v.69h.42v.28h-.42v1.42c0,.15.08.2.22.2.07,0,.14-.02.18-.03h.01v.3c-.08.02-.17.03-.28.03-.28,0-.48-.11-.48-.42v-1.5h-.32v-.28Z"/><path class="cls-1" d="m151.37,31.5c0-.64.42-1.15,1.04-1.15.66,0,1.01.51,1.01,1.23h-1.7c.03.45.27.78.71.78.32,0,.53-.15.61-.45h.33c-.1.47-.45.74-.94.74-.67,0-1.06-.52-1.06-1.15Zm.36-.18h1.32c-.02-.44-.25-.7-.64-.7s-.63.31-.68.7Z"/><path class="cls-1" d="m153.64,31.5c0-.64.41-1.15,1.06-1.15.52,0,.86.3.94.76h-.35c-.05-.3-.26-.48-.59-.48-.47,0-.71.39-.71.87s.24.87.71.87c.36,0,.57-.2.6-.54h.34c-.05.53-.39.83-.94.83-.65,0-1.06-.52-1.06-1.15Z"/><path class="cls-1" d="m156.31,30.69h0c.16-.21.38-.34.7-.34.46,0,.74.25.74.7v1.54h-.34v-1.51c0-.28-.19-.45-.5-.45-.35,0-.6.25-.6.61v1.35h-.34v-3.03h.34v1.13Z"/><path class="cls-1" d="m158.55,30.69h0c.16-.21.38-.34.7-.34.46,0,.74.25.74.7v1.54h-.34v-1.51c0-.28-.19-.45-.5-.45-.35,0-.6.25-.6.61v1.35h-.34v-2.19h.34v.29Z"/><path class="cls-1" d="m160.33,31.5c0-.64.41-1.15,1.06-1.15s1.06.52,1.06,1.15-.4,1.15-1.06,1.15-1.06-.52-1.06-1.15Zm1.76,0c0-.48-.24-.87-.7-.87s-.71.39-.71.87.24.87.71.87.7-.38.7-.87Z"/><path class="cls-1" d="m162.79,30.4h.34v.31h0c.14-.21.37-.37.65-.37s.48.14.57.39h0c.14-.25.4-.39.67-.39.39,0,.67.25.67.7v1.54h-.34v-1.52c0-.27-.18-.43-.4-.43-.28,0-.54.25-.54.59v1.37h-.34v-1.52c0-.27-.15-.43-.38-.43-.27,0-.56.25-.56.59v1.37h-.34v-2.19Z"/><path class="cls-1" d="m167.51,32.29h0c-.13.17-.36.35-.73.35-.42,0-.74-.19-.74-.61,0-.52.41-.62.96-.71.31-.05.53-.08.53-.31s-.18-.39-.49-.39c-.36,0-.53.15-.55.48h-.33c.01-.42.29-.74.87-.74.47,0,.81.17.81.7v1.04c0,.18.04.28.23.23h.01v.25s-.1.03-.19.03c-.22,0-.34-.1-.38-.33Zm0-.5v-.37c-.12.07-.31.13-.5.16-.34.06-.62.12-.62.45,0,.29.23.36.45.36.46,0,.67-.33.67-.59Z"/><path class="cls-1" d="m168.19,31.88h.35c.05.38.3.49.63.49.36,0,.51-.16.51-.36,0-.25-.17-.31-.57-.39-.43-.09-.82-.18-.82-.66,0-.36.28-.6.79-.6.54,0,.81.26.86.69h-.35c-.03-.29-.19-.42-.52-.42s-.44.14-.44.31c0,.24.21.28.59.36.44.09.81.19.81.69,0,.44-.36.67-.87.67-.6,0-.94-.28-.97-.78Z"/><path class="cls-1" d="m170.22,31.88h.35c.05.38.3.49.63.49.36,0,.51-.16.51-.36,0-.25-.17-.31-.57-.39-.43-.09-.82-.18-.82-.66,0-.36.28-.6.79-.6.54,0,.81.26.86.69h-.35c-.03-.29-.19-.42-.52-.42s-.44.14-.44.31c0,.24.21.28.59.36.44.09.81.19.81.69,0,.44-.36.67-.87.67-.6,0-.94-.28-.97-.78Z"/></svg>