<?xml version="1.0" encoding="UTF-8"?><svg id="Layer_2" xmlns="http://www.w3.org/2000/svg" viewBox="0 0 38.69 34.9"><defs><style>.cls-1{fill:none;}.cls-1,.cls-2{stroke-width:0px;}.cls-2{fill:#231f20;}</style></defs><g id="Layer_1-2"><rect class="cls-1" width="38.69" height="34.9"/><path class="cls-2" d="M1.12,31.43h2.48v2.53H1.12v-2.53Z"/><path class="cls-2" d="M8.2,22.49h.05c.95-1.25,2.28-2.04,4.19-2.04,2.76,0,4.45,1.51,4.45,4.24v9.28h-2.07v-9.1c0-1.71-1.12-2.68-2.99-2.68-2.1,0-3.63,1.48-3.63,3.65v8.13h-2.07v-13.21h2.07v1.74Z"/><path class="cls-2" d="M18.89,27.37c0-3.83,2.5-6.95,6.26-6.95,3.96,0,6.08,3.07,6.08,7.44h-10.22c.15,2.68,1.61,4.73,4.27,4.73,1.92,0,3.19-.92,3.65-2.71h2.02c-.61,2.84-2.68,4.45-5.67,4.45-4.04,0-6.39-3.12-6.39-6.95ZM21.06,26.3h7.95c-.13-2.63-1.48-4.24-3.86-4.24s-3.78,1.84-4.09,4.24Z"/><path class="cls-2" d="M32.15,20.75h1.92v-4.17h2.07v4.17h2.56v1.69h-2.56v8.59c0,.92.49,1.23,1.33,1.23.41,0,.87-.1,1.1-.18h.08v1.79c-.49.1-1.05.18-1.66.18-1.69,0-2.91-.69-2.91-2.56v-9.05h-1.92v-1.69Z"/></g></svg>