<?xml version="1.0" encoding="utf-8"?>
<!-- Generator: Adobe Illustrator 26.3.1, SVG Export Plug-In . SVG Version: 6.00 Build 0)  -->
<svg version="1.1" id="Layer_1" xmlns="http://www.w3.org/2000/svg" xmlns:xlink="http://www.w3.org/1999/xlink" x="0px" y="0px"
	 viewBox="0 0 90.1 79.4" style="enable-background:new 0 0 90.1 79.4;" xml:space="preserve">
<g>
	<g>
		<path d="M37.9,66.1c-1.3,0-2.6-0.5-3.6-1.5L19.7,50c-2-2-2-5.3,0-7.3l29.1-29.1c2-2,5.3-2,7.3,0l14.5,14.5c2,2,2,5.3,0,7.3
			L41.5,64.6C40.5,65.6,39.2,66.1,37.9,66.1z M52.4,17.3L23.3,46.4L37.9,61L67,31.9L52.4,17.3z"/>
	</g>
	<path d="M45.1,6c1.7,0,3-1.3,3-3s-1.3-3-3-3C25.4,0,9.2,14.6,6.4,33.5l-1.1-1.2c-1.1-1.2-3-1.3-4.3-0.1c-1.2,1.1-1.3,3-0.1,4.3
		L7.1,43c0.6,0.6,1.4,0.9,2.2,0.9c0.7,0,1.5-0.3,2.1-0.8l6.6-6.2c1.2-1.1,1.3-3,0.1-4.3c-1.1-1.2-3-1.3-4.3-0.1l-1.3,1.2
		C15.1,18.1,28.7,6,45.1,6z"/>
	<path d="M89.3,43.1l-6.2-6.5c-1.1-1.2-3-1.3-4.2-0.1l-6.6,6.2c-1.2,1.1-1.3,3-0.1,4.2c1.1,1.2,3,1.3,4.2,0.1l1.1-1
		C74.3,60.9,61,72.2,45.1,72.2c-1.7,0-3,1.3-3,3s1.3,3,3,3c19.2,0,35.2-14,38.5-32.3l1.3,1.4c0.6,0.6,1.4,0.9,2.2,0.9
		c0.7,0,1.5-0.3,2.1-0.8C90.4,46.3,90.4,44.4,89.3,43.1z"/>
	<g>
		<path d="M37.7,54.2c-0.7,0-1.3-0.3-1.8-0.8l-5.1-5.2c-1-1-1-2.6,0-3.6s2.6-1,3.6,0l5.1,5.2c1,1,1,2.6,0,3.6
			C39,54,38.4,54.2,37.7,54.2z"/>
	</g>
</g>
</svg>
