<?xml version="1.0" encoding="UTF-8"?><svg id="Layer_2" xmlns="http://www.w3.org/2000/svg" viewBox="0 0 90.9 4.8"><defs><style>.cls-1{stroke-width:0px;}</style></defs><g id="Layer_3"><path class="cls-1" d="M1.87,3.5h0c-.17.21-.45.44-.93.44-.53,0-.94-.25-.94-.78,0-.66.52-.79,1.21-.9.39-.06.67-.1.67-.4s-.23-.49-.62-.49c-.45,0-.68.19-.69.61H.14c.02-.54.37-.94,1.11-.94.59,0,1.03.22,1.03.88v1.33c0,.23.05.35.3.3h.02v.32c-.05.02-.12.04-.24.04-.29,0-.44-.13-.48-.42ZM1.89,2.86v-.47c-.15.09-.4.16-.64.21-.44.08-.79.16-.79.57,0,.37.29.45.58.45.58,0,.85-.43.85-.75Z"/><path class="cls-1" d="M3.35,1.46h.01c.2-.26.48-.43.88-.43.58,0,.94.32.94.89v1.96h-.44v-1.92c0-.36-.24-.57-.63-.57-.44,0-.77.31-.77.77v1.71h-.44V1.1h.44v.37Z"/><path class="cls-1" d="M6.61.03h.44v.54h-.44V.03ZM6.61,1.1h.44v2.79h-.44V1.1Z"/><path class="cls-1" d="M8.08,1.46h.01c.2-.26.48-.43.88-.43.58,0,.94.32.94.89v1.96h-.44v-1.92c0-.36-.24-.57-.63-.57-.44,0-.76.31-.76.77v1.71h-.44V1.1h.44v.37Z"/><path class="cls-1" d="M10.14,1.1h.47l.58,1.77c.08.25.18.59.18.59h.01s.1-.34.18-.59l.59-1.77h.45l-1,2.79h-.49l-.97-2.79Z"/><path class="cls-1" d="M12.7,2.49c0-.81.53-1.46,1.32-1.46.83,0,1.28.65,1.28,1.57h-2.15c.03.57.34,1,.9,1,.4,0,.67-.19.77-.57h.43c-.13.6-.57.94-1.2.94-.85,0-1.35-.66-1.35-1.46ZM13.16,2.27h1.68c-.03-.55-.31-.89-.81-.89s-.8.39-.86.89Z"/><path class="cls-1" d="M16.17,1.46h.01c.2-.26.48-.43.88-.43.58,0,.94.32.94.89v1.96h-.44v-1.92c0-.36-.24-.57-.63-.57-.44,0-.76.31-.76.77v1.71h-.44V1.1h.44v.37Z"/><path class="cls-1" d="M18.34,1.1h.4V.22h.44v.88h.54v.36h-.54v1.81c0,.19.1.26.28.26.09,0,.18-.02.23-.04h.02v.38c-.1.02-.22.04-.35.04-.36,0-.61-.15-.61-.54v-1.91h-.4v-.36Z"/><path class="cls-1" d="M19.99,2.49c0-.81.52-1.46,1.35-1.46s1.34.66,1.34,1.46-.51,1.46-1.34,1.46-1.35-.66-1.35-1.46ZM22.23,2.49c0-.61-.3-1.1-.89-1.1s-.9.49-.9,1.1.31,1.1.9,1.1.89-.48.89-1.1Z"/><path class="cls-1" d="M23.55,1.56h.01c.17-.27.46-.5.83-.5.08,0,.12.01.18.03v.42h-.02c-.06-.02-.11-.03-.19-.03-.43,0-.81.32-.81.85v1.55h-.44V1.1h.44v.46Z"/><path class="cls-1" d="M24.92,4.75v-.39h.02c.06.03.15.06.3.06.18,0,.31-.07.42-.34l.11-.28-1.09-2.7h.47l.66,1.73c.09.23.19.54.19.54h.01s.1-.31.18-.54l.64-1.73h.46l-1.19,3.01c-.23.58-.44.69-.78.69-.17,0-.27-.01-.39-.06Z"/><path class="cls-1" d="M28.29,2.49c0-.81.52-1.46,1.35-1.46s1.34.66,1.34,1.46-.51,1.46-1.34,1.46-1.35-.66-1.35-1.46ZM30.53,2.49c0-.61-.3-1.1-.89-1.1s-.9.49-.9,1.1.31,1.1.9,1.1.89-.48.89-1.1Z"/><path class="cls-1" d="M31.18,1.1h.38v-.45c0-.48.27-.65.74-.65.09,0,.16,0,.22.01v.37c-.08,0-.1,0-.14,0-.28,0-.38.07-.38.3v.42h.52v.36h-.52v2.43h-.44V1.45h-.38v-.36Z"/><path class="cls-1" d="M34.25,3.52h-.01v.37h-.44V.03h.44v1.47h.01c.21-.29.49-.46.89-.46.71,0,1.18.54,1.18,1.46s-.45,1.47-1.2,1.47c-.38,0-.65-.13-.88-.45ZM35.88,2.5c0-.62-.25-1.1-.78-1.1-.61,0-.89.5-.89,1.1s.29,1.09.88,1.09c.53,0,.79-.46.79-1.09Z"/><path class="cls-1" d="M36.76.03h.44v.54h-.44V.03ZM36.76,1.1h.44v2.79h-.44V1.1Z"/><path class="cls-1" d="M37.63,2.49c0-.81.52-1.46,1.35-1.46s1.34.66,1.34,1.46-.51,1.46-1.34,1.46-1.35-.66-1.35-1.46ZM39.87,2.49c0-.61-.3-1.1-.89-1.1s-.9.49-.9,1.1.31,1.1.9,1.1.89-.48.89-1.1Z"/><path class="cls-1" d="M40.76,1.1h.44v.4h.01c.17-.27.47-.46.82-.46s.61.17.73.5h.01c.18-.32.51-.5.85-.5.5,0,.85.32.85.89v1.96h-.44v-1.93c0-.34-.23-.55-.51-.55-.36,0-.68.31-.68.75v1.73h-.44v-1.93c0-.34-.19-.55-.48-.55-.34,0-.72.31-.72.75v1.73h-.44V1.1Z"/><path class="cls-1" d="M46.74,3.5h0c-.17.21-.45.44-.93.44-.53,0-.94-.25-.94-.78,0-.66.52-.79,1.21-.9.39-.06.67-.1.67-.4s-.23-.49-.62-.49c-.45,0-.68.19-.7.61h-.42c.02-.54.37-.94,1.11-.94.59,0,1.03.22,1.03.88v1.33c0,.23.05.35.3.3h.02v.32c-.05.02-.12.04-.24.04-.29,0-.44-.13-.48-.42ZM46.75,2.86v-.47c-.15.09-.4.16-.64.21-.44.08-.79.16-.79.57,0,.37.29.45.58.45.58,0,.85-.43.85-.75Z"/><path class="cls-1" d="M47.6,2.98h.45c.06.49.38.62.8.62.46,0,.65-.2.65-.46,0-.31-.21-.39-.73-.5-.55-.11-1.04-.23-1.04-.83,0-.46.36-.76,1-.76.69,0,1.03.33,1.09.87h-.45c-.04-.37-.24-.53-.66-.53s-.56.18-.56.4c0,.3.27.36.75.46.56.11,1.03.24,1.03.88,0,.56-.46.85-1.1.85-.76,0-1.19-.36-1.23-.99Z"/><path class="cls-1" d="M50.17,2.98h.45c.06.49.38.62.8.62.46,0,.65-.2.65-.46,0-.31-.21-.39-.73-.5-.55-.11-1.04-.23-1.04-.83,0-.46.36-.76,1-.76.69,0,1.03.33,1.09.87h-.45c-.04-.37-.24-.53-.66-.53s-.56.18-.56.4c0,.3.27.36.75.46.56.11,1.03.24,1.03.88,0,.56-.46.85-1.1.85-.76,0-1.19-.36-1.23-.99Z"/><path class="cls-1" d="M55.49,3.5h0c-.17.21-.45.44-.93.44-.53,0-.94-.25-.94-.78,0-.66.52-.79,1.21-.9.39-.06.67-.1.67-.4s-.23-.49-.62-.49c-.45,0-.68.19-.7.61h-.42c.02-.54.37-.94,1.11-.94.59,0,1.03.22,1.03.88v1.33c0,.23.05.35.3.3h.02v.32c-.05.02-.12.04-.24.04-.29,0-.44-.13-.48-.42ZM55.5,2.86v-.47c-.15.09-.4.16-.64.21-.44.08-.79.16-.79.57,0,.37.29.45.58.45.58,0,.85-.43.85-.75Z"/><path class="cls-1" d="M56.96,1.46h.01c.2-.26.48-.43.88-.43.58,0,.94.32.94.89v1.96h-.44v-1.92c0-.36-.24-.57-.63-.57-.44,0-.76.31-.76.77v1.71h-.44V1.1h.44v.37Z"/><path class="cls-1" d="M59.21,2.5c0-.93.53-1.46,1.22-1.46.39,0,.7.19.87.46h.01V.03h.44v3.85h-.44v-.34h-.01c-.21.27-.47.42-.86.42-.76,0-1.23-.57-1.23-1.47ZM61.35,2.5c0-.65-.31-1.1-.89-1.1-.53,0-.8.47-.8,1.1s.27,1.09.8,1.09c.62,0,.88-.46.88-1.09Z"/><path class="cls-1" d="M63.03,1.1h.4V.22h.44v.88h.54v.36h-.54v1.81c0,.19.1.26.28.26.09,0,.18-.02.23-.04h.02v.38c-.1.02-.22.04-.35.04-.36,0-.61-.15-.61-.54v-1.91h-.4v-.36Z"/><path class="cls-1" d="M64.67,2.49c0-.81.53-1.46,1.32-1.46.83,0,1.28.65,1.28,1.57h-2.15c.03.57.34,1,.9,1,.4,0,.67-.19.77-.57h.43c-.13.6-.57.94-1.2.94-.85,0-1.35-.66-1.35-1.46ZM65.13,2.27h1.68c-.03-.55-.31-.89-.81-.89s-.8.39-.86.89Z"/><path class="cls-1" d="M67.54,2.49c0-.81.52-1.46,1.35-1.46.66,0,1.09.38,1.19.97h-.44c-.06-.38-.33-.61-.75-.61-.59,0-.9.49-.9,1.1s.31,1.1.9,1.1c.45,0,.72-.26.76-.69h.43c-.06.67-.5,1.06-1.19,1.06-.83,0-1.35-.66-1.35-1.46Z"/><path class="cls-1" d="M70.93,1.46h.01c.2-.26.48-.43.88-.43.58,0,.94.32.94.89v1.96h-.44v-1.92c0-.36-.24-.57-.63-.57-.44,0-.76.31-.76.77v1.71h-.44V.03h.44v1.43Z"/><path class="cls-1" d="M73.77,1.46h.01c.2-.26.48-.43.88-.43.58,0,.94.32.94.89v1.96h-.44v-1.92c0-.36-.24-.57-.63-.57-.44,0-.76.31-.76.77v1.71h-.44V1.1h.44v.37Z"/><path class="cls-1" d="M76.02,2.49c0-.81.52-1.46,1.35-1.46s1.34.66,1.34,1.46-.51,1.46-1.34,1.46-1.35-.66-1.35-1.46ZM78.27,2.49c0-.61-.3-1.1-.89-1.1s-.9.49-.9,1.1.31,1.1.9,1.1.89-.48.89-1.1Z"/><path class="cls-1" d="M79.15,1.1h.44v.4h.01c.17-.27.47-.46.82-.46s.61.17.73.5h.01c.18-.32.51-.5.85-.5.5,0,.85.32.85.89v1.96h-.44v-1.93c0-.34-.23-.55-.51-.55-.36,0-.68.31-.68.75v1.73h-.44v-1.93c0-.34-.19-.55-.48-.55-.34,0-.72.31-.72.75v1.73h-.44V1.1Z"/><path class="cls-1" d="M85.13,3.5h0c-.17.21-.45.44-.93.44-.53,0-.94-.25-.94-.78,0-.66.52-.79,1.21-.9.39-.06.67-.1.67-.4s-.23-.49-.62-.49c-.45,0-.68.19-.7.61h-.42c.02-.54.37-.94,1.11-.94.59,0,1.03.22,1.03.88v1.33c0,.23.05.35.3.3h.02v.32c-.05.02-.12.04-.24.04-.29,0-.44-.13-.48-.42ZM85.14,2.86v-.47c-.15.09-.4.16-.64.21-.44.08-.79.16-.79.57,0,.37.29.45.58.45.58,0,.85-.43.85-.75Z"/><path class="cls-1" d="M85.99,2.98h.45c.06.49.38.62.8.62.46,0,.65-.2.65-.46,0-.31-.21-.39-.73-.5-.55-.11-1.04-.23-1.04-.83,0-.46.36-.76,1-.76.69,0,1.03.33,1.09.87h-.45c-.04-.37-.24-.53-.66-.53s-.56.18-.56.4c0,.3.27.36.75.46.56.11,1.03.24,1.03.88,0,.56-.46.85-1.1.85-.76,0-1.19-.36-1.23-.99Z"/><path class="cls-1" d="M88.57,2.98h.45c.06.49.38.62.8.62.46,0,.65-.2.65-.46,0-.31-.21-.39-.73-.5-.55-.11-1.04-.23-1.04-.83,0-.46.36-.76,1-.76.69,0,1.03.33,1.09.87h-.45c-.04-.37-.24-.53-.66-.53s-.56.18-.56.4c0,.3.27.36.75.46.56.11,1.03.24,1.03.88,0,.56-.46.85-1.1.85-.76,0-1.19-.36-1.23-.99Z"/></g></svg>