<?xml version="1.0" encoding="UTF-8"?><svg id="Layer_2" xmlns="http://www.w3.org/2000/svg" viewBox="0 0 1035.72 60.54"><defs><style>.cls-1{fill:#999da0;stroke-width:0px;}</style></defs><g id="Layer_1-2"><path class="cls-1" d="M23.59,44h-.07c-2.1,2.71-5.7,5.56-11.66,5.56C5.22,49.56,0,46.44,0,39.8,0,31.53,6.51,29.83,15.25,28.48c4.95-.75,8.41-1.22,8.41-5.02s-2.85-6.17-7.86-6.17c-5.69,0-8.54,2.44-8.75,7.73H1.76c.2-6.78,4.68-11.86,13.97-11.86,7.46,0,12.95,2.78,12.95,11.12v16.68c0,2.85.68,4.41,3.73,3.73h.2v4c-.68.27-1.56.54-2.98.54-3.59,0-5.49-1.63-6.03-5.22h-.01ZM23.73,35.93v-5.97c-1.83,1.15-5.02,2.03-8,2.58-5.49,1.02-9.9,1.97-9.9,7.12,0,4.68,3.66,5.69,7.25,5.69,7.32,0,10.64-5.36,10.64-9.42h0Z"/><path class="cls-1" d="M43.86,13.83h5.9l7.25,22.24c1.02,3.12,2.3,7.39,2.3,7.39h.14s1.29-4.34,2.3-7.39l7.39-22.24h5.7l-12.61,35.05h-6.1s-12.27-35.05-12.27-35.05Z"/><path class="cls-1" d="M78.71.41h5.49v6.78h-5.49V.41ZM78.71,13.83h5.49v35.05h-5.49V13.83Z"/><path class="cls-1" d="M89.42,37.49h5.63c.75,6.1,4.81,7.8,10.03,7.8,5.76,0,8.13-2.51,8.13-5.76,0-3.93-2.71-4.95-9.15-6.3-6.92-1.42-13.08-2.85-13.08-10.51,0-5.83,4.47-9.63,12.61-9.63,8.68,0,12.95,4.13,13.76,10.98h-5.63c-.54-4.61-3.05-6.64-8.27-6.64s-7.05,2.24-7.05,5.02c0,3.8,3.39,4.54,9.42,5.76,7.05,1.42,12.95,2.98,12.95,11.05,0,7.05-5.76,10.64-13.83,10.64-9.63,0-14.98-4.54-15.53-12.41h.01Z"/><path class="cls-1" d="M146.37,48.88v-4.81h-.14c-2.51,3.39-5.49,5.63-10.58,5.63-7.19,0-11.8-4.34-11.8-11.59V13.83h5.49v24.13c0,4.54,2.92,7.19,7.86,7.19,5.56,0,9.15-4.2,9.15-9.76V13.83h5.49v35.05h-5.49.02Z"/><path class="cls-1" d="M180.81,44h-.07c-2.1,2.71-5.7,5.56-11.66,5.56-6.64,0-11.86-3.12-11.86-9.76,0-8.27,6.51-9.97,15.25-11.32,4.95-.75,8.41-1.22,8.41-5.02s-2.85-6.17-7.86-6.17c-5.69,0-8.54,2.44-8.75,7.73h-5.29c.2-6.78,4.68-11.86,13.97-11.86,7.46,0,12.95,2.78,12.95,11.12v16.68c0,2.85.68,4.41,3.73,3.73h.2v4c-.68.27-1.56.54-2.98.54-3.59,0-5.49-1.63-6.03-5.22h0ZM180.95,35.93v-5.97c-1.83,1.15-5.02,2.03-8,2.58-5.49,1.02-9.9,1.97-9.9,7.12,0,4.68,3.66,5.69,7.25,5.69,7.32,0,10.64-5.36,10.64-9.42h0Z"/><path class="cls-1" d="M194.1.41h5.49v48.47h-5.49V.41Z"/><path class="cls-1" d="M215.79,37.49h5.63c.75,6.1,4.81,7.8,10.03,7.8,5.76,0,8.13-2.51,8.13-5.76,0-3.93-2.71-4.95-9.15-6.3-6.92-1.42-13.08-2.85-13.08-10.51,0-5.83,4.47-9.63,12.61-9.63,8.68,0,12.95,4.13,13.76,10.98h-5.63c-.54-4.61-3.05-6.64-8.27-6.64s-7.05,2.24-7.05,5.02c0,3.8,3.39,4.54,9.42,5.76,7.05,1.42,12.95,2.98,12.95,11.05,0,7.05-5.76,10.64-13.83,10.64-9.63,0-14.98-4.54-15.53-12.41h.01Z"/><path class="cls-1" d="M247.52,13.83h5.08V2.78h5.49v11.05h6.78v4.47h-6.78v22.78c0,2.44,1.29,3.25,3.53,3.25,1.08,0,2.3-.27,2.92-.47h.2v4.75c-1.29.27-2.78.47-4.41.47-4.47,0-7.73-1.83-7.73-6.78v-24h-5.08v-4.47h0Z"/><path class="cls-1" d="M268.27,31.39c0-10.17,6.51-18.44,16.95-18.44s16.88,8.27,16.88,18.44-6.37,18.44-16.88,18.44-16.95-8.27-16.95-18.44ZM296.47,31.39c0-7.73-3.8-13.9-11.25-13.9s-11.32,6.17-11.32,13.9,3.86,13.83,11.32,13.83,11.25-6.1,11.25-13.83Z"/><path class="cls-1" d="M313.08,19.66h.14c2.1-3.39,5.76-6.24,10.44-6.24,1.02,0,1.56.13,2.24.41v5.29h-.2c-.81-.27-1.36-.34-2.44-.34-5.42,0-10.17,4.07-10.17,10.64v19.46h-5.49V13.83h5.49v5.83h0Z"/><path class="cls-1" d="M330.37,59.73v-4.88h.27c.75.41,1.9.75,3.73.75,2.3,0,3.86-.88,5.22-4.27l1.36-3.46-13.69-34.03h5.97l8.27,21.83c1.08,2.92,2.37,6.85,2.37,6.85h.14s1.22-3.93,2.3-6.85l8-21.83h5.83l-14.98,37.9c-2.85,7.25-5.56,8.75-9.83,8.75-2.1,0-3.46-.13-4.95-.75h0Z"/><path class="cls-1" d="M372.81,31.39c0-10.17,6.51-18.44,16.95-18.44s16.88,8.27,16.88,18.44-6.37,18.44-16.88,18.44-16.95-8.27-16.95-18.44ZM401.01,31.39c0-7.73-3.8-13.9-11.25-13.9s-11.32,6.17-11.32,13.9,3.86,13.83,11.32,13.83,11.25-6.1,11.25-13.83Z"/><path class="cls-1" d="M409.22,13.83h4.81v-5.63c0-6.03,3.46-8.2,9.29-8.2,1.15,0,2.03.07,2.78.14v4.68c-.95-.07-1.22-.07-1.76-.07-3.53,0-4.81.88-4.81,3.73v5.36h6.51v4.47h-6.51v30.58h-5.49v-30.58h-4.81v-4.47h-.01Z"/><path class="cls-1" d="M439.93,13.83h5.08V2.78h5.49v11.05h6.78v4.47h-6.78v22.78c0,2.44,1.29,3.25,3.53,3.25,1.08,0,2.3-.27,2.92-.47h.2v4.75c-1.29.27-2.78.47-4.41.47-4.47,0-7.73-1.83-7.73-6.78v-24h-5.08v-4.47Z"/><path class="cls-1" d="M468.47,18.44h.14c2.51-3.32,6.03-5.42,11.12-5.42,7.32,0,11.8,4,11.8,11.25v24.61h-5.49v-24.13c0-4.54-2.98-7.12-7.93-7.12-5.56,0-9.63,3.93-9.63,9.69v21.56h-5.49V.41h5.49v18.03h-.01Z"/><path class="cls-1" d="M496.81,31.39c0-10.17,6.64-18.44,16.61-18.44,10.51,0,16.14,8.13,16.14,19.73h-27.12c.41,7.12,4.27,12.54,11.32,12.54,5.08,0,8.47-2.44,9.7-7.19h5.36c-1.63,7.53-7.12,11.8-15.05,11.8-10.71,0-16.95-8.27-16.95-18.44h-.01ZM502.57,28.54h21.08c-.34-6.98-3.93-11.25-10.24-11.25s-10.03,4.88-10.85,11.25h0Z"/><path class="cls-1" d="M545.89.41h5.49v48.47h-5.49V.41Z"/><path class="cls-1" d="M559.04.41h5.49v6.78h-5.49V.41ZM559.04,13.83h5.49v35.05h-5.49V13.83Z"/><path class="cls-1" d="M568.4,13.83h5.9l7.25,22.24c1.02,3.12,2.3,7.39,2.3,7.39h.14s1.29-4.34,2.3-7.39l7.39-22.24h5.7l-12.61,35.05h-6.1l-12.27-35.05h0Z"/><path class="cls-1" d="M603.25.41h5.49v6.78h-5.49V.41ZM603.25,13.83h5.49v35.05h-5.49V13.83Z"/><path class="cls-1" d="M621.69,18.44h.14c2.51-3.32,6.03-5.42,11.12-5.42,7.32,0,11.8,4,11.8,11.25v24.61h-5.49v-24.13c0-4.54-2.98-7.12-7.93-7.12-5.56,0-9.63,3.93-9.63,9.69v21.56h-5.49V13.83h5.49v4.61h-.01Z"/><path class="cls-1" d="M651.11,50.85h5.08c.54,3.87,4.2,5.36,9.63,5.36,6.44,0,10.03-2.92,10.03-9.02v-4.95h-.14c-2.58,3.32-5.36,5.42-10.37,5.42-9.08,0-15.32-7.25-15.32-17.36,0-10.92,6.85-17.29,14.98-17.29,5.08,0,8.34,1.97,10.71,5.29h.14v-4.47h5.49v33.15c0,9.22-6.1,13.56-15.39,13.56s-14.24-3.66-14.85-9.7h0ZM676.26,30.03c0-7.66-3.25-12.41-10.71-12.41-6.58,0-9.9,5.15-9.9,12.75s3.46,12.68,9.97,12.68c8.07,0,10.64-5.63,10.64-13.02h0Z"/><path class="cls-1" d="M721.08,44h-.07c-2.1,2.71-5.7,5.56-11.66,5.56-6.64,0-11.86-3.12-11.86-9.76,0-8.27,6.51-9.97,15.25-11.32,4.95-.75,8.41-1.22,8.41-5.02s-2.85-6.17-7.86-6.17c-5.69,0-8.54,2.44-8.75,7.73h-5.29c.2-6.78,4.68-11.86,13.97-11.86,7.46,0,12.95,2.78,12.95,11.12v16.68c0,2.85.68,4.41,3.73,3.73h.2v4c-.68.27-1.56.54-2.98.54-3.59,0-5.49-1.63-6.03-5.22h-.01ZM721.21,35.93v-5.97c-1.83,1.15-5.02,2.03-8,2.58-5.49,1.02-9.9,1.97-9.9,7.12,0,4.68,3.66,5.69,7.25,5.69,7.32,0,10.64-5.36,10.64-9.42h.01Z"/><path class="cls-1" d="M739.65,18.44h.14c2.51-3.32,6.03-5.42,11.12-5.42,7.32,0,11.8,4,11.8,11.25v24.61h-5.49v-24.13c0-4.54-2.98-7.12-7.93-7.12-5.56,0-9.63,3.93-9.63,9.69v21.56h-5.49V13.83h5.49v4.61h-.01Z"/><path class="cls-1" d="M767.99,31.46c0-11.66,6.71-18.44,15.39-18.44,4.95,0,8.75,2.44,10.98,5.76h.14V.41h5.49v48.47h-5.49v-4.27h-.14c-2.64,3.39-5.9,5.29-10.85,5.29-9.56,0-15.53-7.19-15.53-18.44h.01ZM794.84,31.52c0-8.13-3.93-13.83-11.19-13.83-6.64,0-10.03,5.97-10.03,13.83s3.39,13.76,10.1,13.76c7.8,0,11.12-5.83,11.12-13.76h0Z"/><path class="cls-1" d="M815.99,13.83h5.08V2.78h5.49v11.05h6.78v4.47h-6.78v22.78c0,2.44,1.29,3.25,3.53,3.25,1.08,0,2.3-.27,2.92-.47h.2v4.75c-1.29.27-2.78.47-4.41.47-4.47,0-7.73-1.83-7.73-6.78v-24h-5.08v-4.47h0Z"/><path class="cls-1" d="M844.53,18.44h.14c2.51-3.32,6.03-5.42,11.12-5.42,7.32,0,11.8,4,11.8,11.25v24.61h-5.49v-24.13c0-4.54-2.98-7.12-7.93-7.12-5.56,0-9.63,3.93-9.63,9.69v21.56h-5.49V.41h5.49v18.03h-.01Z"/><path class="cls-1" d="M872.87,31.39c0-10.17,6.64-18.44,16.61-18.44,10.51,0,16.14,8.13,16.14,19.73h-27.12c.41,7.12,4.27,12.54,11.32,12.54,5.08,0,8.47-2.44,9.7-7.19h5.36c-1.63,7.53-7.12,11.8-15.05,11.8-10.71,0-16.95-8.27-16.95-18.44h-.01ZM878.64,28.54h21.08c-.34-6.98-3.93-11.25-10.24-11.25s-10.03,4.88-10.85,11.25h0Z"/><path class="cls-1" d="M927.38,44.27h-.14v4.61h-5.49V.41h5.49v18.44h.14c2.64-3.59,6.17-5.83,11.25-5.83,8.88,0,14.92,6.78,14.92,18.44s-5.63,18.44-15.12,18.44c-4.75,0-8.2-1.7-11.05-5.63ZM947.92,31.52c0-7.86-3.19-13.83-9.83-13.83-7.66,0-11.19,6.24-11.19,13.83s3.66,13.76,11.12,13.76c6.71,0,9.9-5.83,9.9-13.76Z"/><path class="cls-1" d="M981.35,48.88v-4.81h-.14c-2.51,3.39-5.49,5.63-10.58,5.63-7.19,0-11.8-4.34-11.8-11.59V13.83h5.49v24.13c0,4.54,2.92,7.19,7.86,7.19,5.56,0,9.15-4.2,9.15-9.76V13.83h5.49v35.05h-5.49.02Z"/><path class="cls-1" d="M994.29.41h5.49v6.78h-5.49V.41ZM994.29,13.83h5.49v35.05h-5.49V13.83Z"/><path class="cls-1" d="M1007.45.41h5.49v48.47h-5.49V.41Z"/><path class="cls-1" d="M1018.36,13.83h5.08V2.78h5.49v11.05h6.78v4.47h-6.78v22.78c0,2.44,1.29,3.25,3.53,3.25,1.08,0,2.3-.27,2.92-.47h.2v4.75c-1.29.27-2.78.47-4.41.47-4.47,0-7.73-1.83-7.73-6.78v-24h-5.08v-4.47h0Z"/></g></svg>