<?xml version="1.0" encoding="UTF-8"?><svg id="Layer_2" xmlns="http://www.w3.org/2000/svg" viewBox="0 0 79.29 33.89"><defs><style>.cls-1{stroke-width:0px;}</style></defs><g id="Layer_3"><path class="cls-1" d="m7.72,0h3.09v27.32h-3.09s0-27.32,0-27.32Z"/><path class="cls-1" d="m14.17,0h3.09v3.82h-3.09V0Zm0,7.56h3.09v19.76h-3.09V7.56Z"/><path class="cls-1" d="m18.49,7.56h3.32l4.09,12.53c.57,1.76,1.3,4.17,1.3,4.17h.08s.73-2.45,1.3-4.17l4.17-12.53h3.21l-7.11,19.75h-3.44s-6.92-19.75-6.92-19.75Z"/><path class="cls-1" d="m37.18,0h3.09v3.82h-3.09V0Zm0,7.56h3.09v19.76h-3.09V7.56Z"/><path class="cls-1" d="m46.62,10.16h.08c1.41-1.87,3.4-3.06,6.27-3.06,4.13,0,6.65,2.25,6.65,6.34v13.87h-3.09v-13.6c0-2.56-1.68-4.01-4.47-4.01-3.13,0-5.43,2.22-5.43,5.46v12.15h-3.09V7.56h3.09v2.6h-.01Z"/><path class="cls-1" d="m62.25,28.43h2.87c.31,2.18,2.37,3.02,5.42,3.02,3.63,0,5.66-1.64,5.66-5.08v-2.79h-.08c-1.45,1.87-3.02,3.06-5.85,3.06-5.12,0-8.63-4.09-8.63-9.78,0-6.15,3.86-9.74,8.44-9.74,2.87,0,4.7,1.11,6.04,2.98h.08v-2.52h3.09v18.67c0,5.2-3.44,7.64-8.67,7.64s-8.02-2.06-8.37-5.46Zm14.18-11.73c0-4.32-1.83-6.99-6.04-6.99-3.71,0-5.58,2.9-5.58,7.18s1.95,7.14,5.62,7.14c4.55,0,6-3.17,6-7.34h0Z"/><path class="cls-1" d="m1.65,27.39v-.63H.29v-.68h1.36v-.83h.55v.83h2.8c.3,0,.4-.16.4-.43,0-.13-.03-.28-.06-.36v-.03h.58c.03.16.06.34.06.54,0,.55-.23.95-.83.95h-2.96v.63h-.55,0,0Z"/><path class="cls-1" d="m2.22,24.08v-.02c-.41-.31-.67-.74-.67-1.37,0-.9.49-1.45,1.38-1.45h3.03v.68h-2.97c-.56,0-.88.37-.88.98,0,.68.48,1.19,1.19,1.19h2.65v.68H0v-.68h2.22Z"/><path class="cls-1" d="m3.81,20.8c-1.25,0-2.27-.82-2.27-2.04,0-1.29,1-1.99,2.43-1.99v3.34c.88-.05,1.54-.53,1.54-1.39,0-.63-.3-1.04-.88-1.19v-.66c.93.2,1.45.88,1.45,1.85,0,1.32-1.02,2.09-2.27,2.09h0Zm-.35-.71v-2.6c-.86.04-1.39.48-1.39,1.26s.6,1.24,1.39,1.33h0Z"/></g></svg>